<svg width="169" height="163" viewBox="0 0 169 163" fill="none" xmlns="http://www.w3.org/2000/svg">
    <g filter="url(#filter0_f)">
        <path d="M83.5633 16.5049C83.8873 15.6386 85.1127 15.6386 85.4367 16.5049L102.66 62.5659C102.801 62.9418 103.152 63.1972 103.553 63.2148L152.682 65.3615C153.606 65.4019 153.985 66.5673 153.261 67.1431L114.777 97.7571C114.462 98.0069 114.328 98.4202 114.435 98.8069L127.575 146.195C127.823 147.086 126.831 147.806 126.06 147.296L85.0519 120.155C84.7173 119.934 84.2827 119.934 83.9481 120.155L42.9401 147.296C42.1688 147.806 41.1774 147.086 41.4246 146.195L54.5646 98.8069C54.6718 98.4202 54.5375 98.0069 54.2235 97.7571L15.7392 67.1431C15.0153 66.5673 15.394 65.4019 16.3181 65.3615L65.447 63.2148C65.8479 63.1972 66.1995 62.9418 66.34 62.5659L83.5633 16.5049Z" fill="url(#paint0_linear)"/>
    </g>
    <path d="M81.4098 28.0041C83.4183 27.3515 85.5817 27.3515 87.5902 28.0041L117.559 37.7414C119.567 38.394 121.317 39.6656 122.559 41.3741L141.08 66.8668C142.321 68.5753 142.99 70.6329 142.99 72.7447V104.255C142.99 106.367 142.321 108.425 141.08 110.133L122.559 135.626C121.317 137.334 119.567 138.606 117.559 139.259L87.5902 148.996C85.5817 149.649 83.4183 149.649 81.4098 148.996L51.4414 139.259C49.433 138.606 47.6827 137.334 46.4414 135.626L27.9199 110.133C26.6786 108.425 26.01 106.367 26.01 104.255V72.7447C26.01 70.6329 26.6786 68.5753 27.9199 66.8668L46.4414 41.3741C47.6827 39.6656 49.4329 38.394 51.4414 37.7414L81.4098 28.0041Z" fill="url(#paint1_linear)"/>
    <path d="M83.6359 28.4836C84.0216 27.8213 84.9784 27.8213 85.3641 28.4836L104.16 60.7542C104.301 60.9968 104.538 61.1688 104.813 61.2283L141.312 69.1321C142.061 69.2943 142.357 70.2042 141.846 70.7757L116.963 98.6239C116.776 98.8333 116.686 99.1116 116.714 99.3909L120.476 136.546C120.553 137.309 119.779 137.871 119.078 137.562L84.9033 122.503C84.6463 122.389 84.3537 122.389 84.0968 122.503L49.9223 137.562C49.221 137.871 48.447 137.309 48.5242 136.546L52.2861 99.3909C52.3144 99.1116 52.224 98.8333 52.0369 98.6239L27.154 70.7757C26.6433 70.2042 26.939 69.2943 27.688 69.1321L64.1875 61.2283C64.4619 61.1688 64.6987 60.9968 64.84 60.7542L83.6359 28.4836Z" fill="url(#paint2_linear)"/>
    <path d="M83.515 32.6268C83.7081 31.5234 85.2919 31.5234 85.485 32.6268L93.0088 75.6053C93.1018 76.1369 93.5999 76.4988 94.1342 76.423L137.334 70.2974C138.443 70.1402 138.933 71.6464 137.943 72.171L99.3929 92.6077C98.9161 92.8604 98.7259 93.4459 98.963 93.9307L118.138 133.123C118.631 134.13 117.349 135.06 116.545 134.281L85.1955 103.933C84.8078 103.558 84.1922 103.558 83.8045 103.933L52.4555 134.281C51.6506 135.06 50.3694 134.13 50.8617 133.123L70.037 93.9307C70.2741 93.4459 70.0839 92.8604 69.6071 92.6077L31.0571 72.171C30.0673 71.6464 30.5567 70.1402 31.6658 70.2974L74.8658 76.423C75.4001 76.4988 75.8982 76.1369 75.9912 75.6053L83.515 32.6268Z" fill="url(#paint3_linear)"/>
    <path d="M77.0815 69.3773C78.5363 61.0671 90.4637 61.0671 91.9185 69.3773C92.6193 73.3807 96.3703 76.1059 100.394 75.5353C108.747 74.3509 112.433 85.6946 104.979 89.6462C101.388 91.5498 99.9556 95.9593 101.742 99.6101C105.449 107.188 95.7999 114.199 89.7384 108.331C86.8182 105.504 82.1818 105.504 79.2616 108.331C73.2001 114.199 63.5506 107.188 67.2583 99.6101C69.0444 95.9593 67.6117 91.5498 64.0208 89.6462C56.5669 85.6946 60.2527 74.3509 68.6057 75.5353C72.6297 76.1059 76.3807 73.3807 77.0815 69.3773Z" fill="url(#paint4_linear)"/>
    <defs>
        <filter id="filter0_f" x="0.359863" y="0.855225" width="168.28" height="161.61" filterUnits="userSpaceOnUse" color-interpolation-filters="sRGB">
            <feFlood flood-opacity="0" result="BackgroundImageFix"/>
            <feBlend mode="normal" in="SourceGraphic" in2="BackgroundImageFix" result="shape"/>
            <feGaussianBlur stdDeviation="7.5" result="effect1_foregroundBlur"/>
        </filter>
        <linearGradient id="paint0_linear" x1="109" y1="136" x2="49.3337" y2="50.7688" gradientUnits="userSpaceOnUse">
            <stop stop-color="#3000BA"/>
            <stop offset="0.285227" stop-color="#0E5DEC"/>
            <stop offset="1" stop-color="#0EA9EC"/>
        </linearGradient>
        <linearGradient id="paint1_linear" x1="87.8921" y1="149.982" x2="36.3986" y2="54.8565" gradientUnits="userSpaceOnUse">
            <stop stop-color="#4409EC"/>
            <stop offset="0.75566" stop-color="#0E5DEC"/>
            <stop offset="1" stop-color="#A6EAFF"/>
        </linearGradient>
        <linearGradient id="paint2_linear" x1="75.6511" y1="27" x2="123.315" y2="127.364" gradientUnits="userSpaceOnUse">
            <stop stop-color="#A400D6"/>
            <stop offset="1" stop-color="#2207C4"/>
        </linearGradient>
        <linearGradient id="paint3_linear" x1="54.4764" y1="45.4016" x2="143.112" y2="88.5495" gradientUnits="userSpaceOnUse">
            <stop stop-color="#3000BA"/>
            <stop offset="0.869792" stop-color="#0E5DEC"/>
            <stop offset="1" stop-color="#0EA9EC"/>
        </linearGradient>
        <linearGradient id="paint4_linear" x1="87.8921" y1="149.982" x2="36.3986" y2="54.8565" gradientUnits="userSpaceOnUse">
            <stop stop-color="#4409EC"/>
            <stop offset="1" stop-color="#0E5DEC"/>
        </linearGradient>
    </defs>
</svg>
