<svg width="26" height="21" viewBox="0 0 26 21" fill="none" xmlns="http://www.w3.org/2000/svg">
    <path d="M24.5984 4.13998L24.6106 4.15245L24.6234 4.16435C25.0176 4.53214 25.25 5.03511 25.25 5.62077V17.6498C25.25 18.2005 25.0006 18.7372 24.6108 19.1182L24.6045 19.1243L24.5984 19.1306C24.222 19.516 23.6994 19.75 23.0837 19.75H2.91635C2.33615 19.75 1.77903 19.4992 1.38924 19.1182L1.383 19.1121L1.37663 19.1062C0.982388 18.7384 0.75 18.2354 0.75 17.6498V5.62077C0.75 5.07003 0.999406 4.53331 1.38923 4.15232L1.39547 4.14622L1.40157 4.13998C1.77798 3.75458 2.30063 3.52053 2.91635 3.52053H6.9943H7.7443V2.77053V2.72222C7.7443 2.32868 7.90391 1.96406 8.18581 1.68855C8.46504 1.41565 8.84501 1.25 9.29278 1.25H16.7072C17.126 1.25 17.5072 1.41266 17.7895 1.68855L17.7976 1.69648L17.8059 1.70417C18.0627 1.94032 18.231 2.31555 18.231 2.72222V2.77053V3.52053H18.981H23.0837C23.6994 3.52053 24.222 3.75458 24.5984 4.13998Z" stroke="#2170FF" stroke-width="1.5"/>
    <path d="M9.22385 7.96886C10.1756 7.03871 11.5214 6.44336 13 6.44336C14.4786 6.44336 15.8245 7.03871 16.7762 7.96886C17.7276 8.89874 18.3299 10.2062 18.3299 11.6354C18.3299 13.0668 17.7507 14.3495 16.7762 15.3019C15.8245 16.2321 14.4786 16.8274 13 16.8274C11.5192 16.8274 10.1987 16.2547 9.22385 15.3019C8.2724 14.372 7.67017 13.0646 7.67017 11.6354C7.67017 10.204 8.24937 8.92126 9.22385 7.96886Z" stroke="#2170FF" stroke-width="1.5"/>
    <path d="M21.7984 8.0361C22.4673 8.0361 23.0095 7.50619 23.0095 6.85252C23.0095 6.19885 22.4673 5.66895 21.7984 5.66895C21.1296 5.66895 20.5874 6.19885 20.5874 6.85252C20.5874 7.50619 21.1296 8.0361 21.7984 8.0361Z" fill="#2170FF"/>
</svg>
