<svg width="60" height="60" viewBox="0 0 55 56" fill="none" xmlns="http://www.w3.org/2000/svg">
    <path d="M27.5 55.0179C42.6878 55.0179 55 42.7058 55 27.5179C55 12.3301 42.6878 0.0179443 27.5 0.0179443C12.3122 0.0179443 0 12.3301 0 27.5179C0 42.7058 12.3122 55.0179 27.5 55.0179Z" fill="url(#g_logo-cardano0)"/>
    <path d="M35.0906 26.077C36.4475 26.077 37.5474 24.9771 37.5474 23.6202C37.5474 22.2633 36.4475 21.1634 35.0906 21.1634C33.7337 21.1634 32.6338 22.2633 32.6338 23.6202C32.6338 24.9771 33.7337 26.077 35.0906 26.077Z" stroke="white" stroke-width="2.8" stroke-miterlimit="10"/>
    <path d="M35.0906 34.4179C36.4475 34.4179 37.5474 33.318 37.5474 31.9611C37.5474 30.6042 36.4475 29.5043 35.0906 29.5043C33.7337 29.5043 32.6338 30.6042 32.6338 31.9611C32.6338 33.318 33.7337 34.4179 35.0906 34.4179Z" stroke="white" stroke-width="2.8" stroke-miterlimit="10"/>
    <path d="M27.868 38.5884C29.2248 38.5884 30.3248 37.4884 30.3248 36.1316C30.3248 34.7747 29.2248 33.6747 27.868 33.6747C26.5111 33.6747 25.4111 34.7747 25.4111 36.1316C25.4111 37.4884 26.5111 38.5884 27.868 38.5884Z" stroke="white" stroke-width="2.8" stroke-miterlimit="10"/>
    <path d="M20.6453 34.4179C22.0022 34.4179 23.1021 33.318 23.1021 31.9611C23.1021 30.6042 22.0022 29.5043 20.6453 29.5043C19.2884 29.5043 18.1885 30.6042 18.1885 31.9611C18.1885 33.318 19.2884 34.4179 20.6453 34.4179Z" stroke="white" stroke-width="2.8" stroke-miterlimit="10"/>
    <path d="M20.6453 26.077C22.0022 26.077 23.1021 24.9771 23.1021 23.6202C23.1021 22.2633 22.0022 21.1634 20.6453 21.1634C19.2884 21.1634 18.1885 22.2633 18.1885 23.6202C18.1885 24.9771 19.2884 26.077 20.6453 26.077Z" stroke="white" stroke-width="2.8" stroke-miterlimit="10"/>
    <path d="M27.868 21.9066C29.2248 21.9066 30.3248 20.8066 30.3248 19.4497C30.3248 18.0929 29.2248 16.9929 27.868 16.9929C26.5111 16.9929 25.4111 18.0929 25.4111 19.4497C25.4111 20.8066 26.5111 21.9066 27.868 21.9066Z" stroke="white" stroke-width="2.8" stroke-miterlimit="10"/>
    <path d="M43.5069 29.0179C44.1859 29.0179 44.7364 28.4674 44.7364 27.7884C44.7364 27.1093 44.1859 26.5588 43.5069 26.5588C42.8278 26.5588 42.2773 27.1093 42.2773 27.7884C42.2773 28.4674 42.8278 29.0179 43.5069 29.0179Z" fill="white"/>
    <path d="M35.6885 42.5611C36.3676 42.5611 36.9181 42.0106 36.9181 41.3315C36.9181 40.6525 36.3676 40.102 35.6885 40.102C35.0095 40.102 34.459 40.6525 34.459 41.3315C34.459 42.0106 35.0095 42.5611 35.6885 42.5611Z" fill="white"/>
    <path d="M20.0523 42.5633C20.7314 42.5633 21.2818 42.0129 21.2818 41.3338C21.2818 40.6547 20.7314 40.1042 20.0523 40.1042C19.3732 40.1042 18.8228 40.6547 18.8228 41.3338C18.8228 42.0129 19.3732 42.5633 20.0523 42.5633Z" fill="white"/>
    <path d="M12.2295 29.0202C12.9086 29.0202 13.4591 28.4697 13.4591 27.7906C13.4591 27.1116 12.9086 26.5611 12.2295 26.5611C11.5505 26.5611 11 27.1116 11 27.7906C11 28.4697 11.5505 29.0202 12.2295 29.0202Z" fill="white"/>
    <path d="M20.0474 15.4793C20.7265 15.4793 21.277 14.9288 21.277 14.2497C21.277 13.5707 20.7265 13.0202 20.0474 13.0202C19.3684 13.0202 18.8179 13.5707 18.8179 14.2497C18.8179 14.9288 19.3684 15.4793 20.0474 15.4793Z" fill="white"/>
    <path d="M35.6841 15.477C36.3632 15.477 36.9137 14.9265 36.9137 14.2475C36.9137 13.5684 36.3632 13.0179 35.6841 13.0179C35.0051 13.0179 34.4546 13.5684 34.4546 14.2475C34.4546 14.9265 35.0051 15.477 35.6841 15.477Z" fill="white"/>
    <defs>
        <linearGradient id="g_logo-cardano0" x1="55" y1="63.8179" x2="13.75" y2="5.51795" gradientUnits="userSpaceOnUse">
            <stop stop-color="#24CBA3"/>
            <stop offset="0.994792" stop-color="#36C3FF"/>
        </linearGradient>
    </defs>
</svg>
