<svg width="214" height="243" viewBox="0 0 214 243" fill="none" xmlns="http://www.w3.org/2000/svg">
<path d="M207.436 98.5993C174.607 197.379 134.223 204.932 87.1581 185.757C40.0928 166.583 6.10352e-05 146.735 6.10352e-05 98.5993C6.10352e-05 50.4633 32.2486 35.555 87.1581 11.4413C142.068 -12.6725 240.266 -0.17987 207.436 98.5993Z" fill="url(#paint0_linear_8409_152230)"/>
<path d="M6.64445 143.711C39.4476 44.2348 79.7983 36.6278 126.826 55.9379C173.853 75.248 213.914 95.2353 213.914 143.711C213.914 192.187 181.691 207.2 126.826 231.484C71.9604 255.768 -26.1587 243.187 6.64445 143.711Z" fill="url(#paint1_linear_8409_152230)"/>
<path opacity="0.5" fill-rule="evenodd" clip-rule="evenodd" d="M169.668 123.289L106.787 25.4747L43.9065 123.289L106.787 201.54L169.668 123.289ZM61.4337 127.063L57.8108 122.554L106.787 46.3689L155.763 122.554L152.142 127.06L106.786 157.298L61.4337 127.063ZM71.5063 139.598L106.787 183.503L142.07 139.595L106.786 163.118L71.5063 139.598Z" fill="url(#paint2_linear_8409_152230)"/>
<path fill-rule="evenodd" clip-rule="evenodd" d="M140.89 128.916L106.787 75.8673L72.6842 128.916L106.787 171.356L140.89 128.916ZM82.19 130.963L80.2252 128.518L106.787 87.1992L133.349 128.518L131.385 130.962L106.787 147.361L82.19 130.963ZM87.6529 137.761L106.787 161.573L125.923 137.76L106.787 150.517L87.6529 137.761Z" fill="url(#paint3_linear_8409_152230)"/>
<defs>
<linearGradient id="paint0_linear_8409_152230" x1="-6.30549" y1="39.4241" x2="210.428" y2="199.504" gradientUnits="userSpaceOnUse">
<stop stop-color="#BEF3FF"/>
<stop offset="1" stop-color="#BEF3FF" stop-opacity="0"/>
</linearGradient>
<linearGradient id="paint1_linear_8409_152230" x1="220.214" y1="203.304" x2="2.46027" y2="43.7249" gradientUnits="userSpaceOnUse">
<stop stop-color="#9DFFDC"/>
<stop offset="1" stop-color="#BEF3FF" stop-opacity="0"/>
</linearGradient>
<linearGradient id="paint2_linear_8409_152230" x1="106.787" y1="25.4747" x2="106.787" y2="201.54" gradientUnits="userSpaceOnUse">
<stop stop-color="white"/>
<stop offset="1" stop-color="white" stop-opacity="0"/>
</linearGradient>
<linearGradient id="paint3_linear_8409_152230" x1="100.779" y1="56.8399" x2="61.7225" y2="179.308" gradientUnits="userSpaceOnUse">
<stop stop-color="#3C5A93"/>
<stop offset="1" stop-color="#191F2C"/>
</linearGradient>
</defs>
</svg>
