<svg width="150" height="150" viewBox="0 0 150 150" fill="none" xmlns="http://www.w3.org/2000/svg">
    <path d="M100.981 55C98.3477 50.4394 94.5606 46.6523 90 44.0192C85.4394 41.3862 80.2661 40 75 40C69.7339 40 64.5606 41.3862 60 44.0192C55.4394 46.6523 51.6523 50.4394 49.0192 55L75 70L100.981 55Z" fill="url(#paint0_linear)"/>
    <g filter="url(#filter0_f)">
        <path d="M104.445 53C101.461 47.8313 97.1686 43.5393 92 40.5551C86.8313 37.571 80.9682 36 75 36C69.0317 36 63.1686 37.571 58 40.5551C52.8313 43.5393 48.5393 47.8314 45.5551 53L75 70L104.445 53Z" fill="url(#paint1_linear)"/>
    </g>
    <path d="M75 132C85.8833 132 96.5748 129.135 106 123.694C115.425 118.252 123.252 110.425 128.694 101C134.135 91.5748 137 80.8833 137 70C137 59.1167 134.135 48.4252 128.694 39L75 70L75 132Z" fill="url(#paint2_radial)"/>
    <path opacity="0.15" d="M128.39 38.4802C122.857 29.1082 114.955 21.3579 105.477 16.008C95.9996 10.6581 85.2808 7.89726 74.398 8.00292C63.5153 8.10859 52.8521 11.077 43.4802 16.6099C34.1082 22.1428 26.3578 30.0452 21.008 39.5228C15.6581 49.0004 12.8973 59.7192 13.0029 70.602C13.1086 81.4847 16.077 92.1479 21.6099 101.52C27.1428 110.892 35.0452 118.642 44.5228 123.992C54.0004 129.342 64.7192 132.103 75.602 131.997L75 70L128.39 38.4802Z" fill="url(#paint3_radial)"/>
    <path d="M49.0192 85C51.6523 89.5606 55.4394 93.3477 60 95.9808C64.5606 98.6138 69.7339 100 75 100L75 70L49.0192 85Z" fill="#C32EFF"/>
    <g filter="url(#filter1_f)">
        <path d="M49.0192 85C51.6523 89.5606 55.4394 93.3477 60 95.9808C64.5606 98.6138 69.7339 100 75 100L75 70L49.0192 85Z" fill="url(#paint4_linear)"/>
    </g>
    <path d="M21.3064 39C15.8648 48.4252 13 59.1167 13 70C13 80.8833 15.8648 91.5748 21.3064 101L75 70L21.3064 39Z" fill="url(#paint5_radial)"/>
    <path d="M23 40L75 70V130" stroke="#1E1E1E" stroke-width="8" stroke-linecap="round"/>
    <path d="M23 100L127 39" stroke="#1E1E1E" stroke-width="8" stroke-linecap="round"/>
    <rect x="70.1279" y="86" width="74" height="40" rx="20" fill="#2170FF"/>
    <path d="M82.1157 110.23C83.3957 109.163 84.4157 108.277 85.1757 107.57C85.9357 106.85 86.569 106.103 87.0757 105.33C87.5823 104.557 87.8357 103.797 87.8357 103.05C87.8357 102.37 87.6757 101.837 87.3557 101.45C87.0357 101.063 86.5423 100.87 85.8757 100.87C85.209 100.87 84.6957 101.097 84.3357 101.55C83.9757 101.99 83.789 102.597 83.7757 103.37H81.0557C81.109 101.77 81.5823 100.557 82.4757 99.73C83.3823 98.9033 84.529 98.49 85.9157 98.49C87.4357 98.49 88.6023 98.8966 89.4157 99.71C90.229 100.51 90.6357 101.57 90.6357 102.89C90.6357 103.93 90.3557 104.923 89.7957 105.87C89.2357 106.817 88.5957 107.643 87.8757 108.35C87.1557 109.043 86.2157 109.883 85.0557 110.87H90.9557V113.19H81.0757V111.11L82.1157 110.23Z" fill="white"/>
    <path d="M92.76 102.65C92.8267 101.317 93.2934 100.29 94.16 99.57C95.04 98.8366 96.1934 98.47 97.62 98.47C98.5934 98.47 99.4267 98.6433 100.12 98.99C100.813 99.3233 101.333 99.7833 101.68 100.37C102.04 100.943 102.22 101.597 102.22 102.33C102.22 103.17 102 103.883 101.56 104.47C101.133 105.043 100.62 105.43 100.02 105.63V105.71C100.793 105.95 101.393 106.377 101.82 106.99C102.26 107.603 102.48 108.39 102.48 109.35C102.48 110.15 102.293 110.863 101.92 111.49C101.56 112.117 101.02 112.61 100.3 112.97C99.5934 113.317 98.74 113.49 97.74 113.49C96.2334 113.49 95.0067 113.11 94.06 112.35C93.1134 111.59 92.6134 110.47 92.56 108.99H95.28C95.3067 109.643 95.5267 110.17 95.94 110.57C96.3667 110.957 96.9467 111.15 97.68 111.15C98.36 111.15 98.88 110.963 99.24 110.59C99.6134 110.203 99.8 109.71 99.8 109.11C99.8 108.31 99.5467 107.737 99.04 107.39C98.5334 107.043 97.7467 106.87 96.68 106.87H96.1V104.57H96.68C98.5734 104.57 99.52 103.937 99.52 102.67C99.52 102.097 99.3467 101.65 99 101.33C98.6667 101.01 98.18 100.85 97.54 100.85C96.9134 100.85 96.4267 101.023 96.08 101.37C95.7467 101.703 95.5534 102.13 95.5 102.65H92.76Z" fill="white"/>
    <path d="M106.253 113.53C105.746 113.53 105.326 113.377 104.993 113.07C104.673 112.75 104.513 112.357 104.513 111.89C104.513 111.423 104.673 111.037 104.993 110.73C105.326 110.41 105.746 110.25 106.253 110.25C106.746 110.25 107.153 110.41 107.473 110.73C107.793 111.037 107.953 111.423 107.953 111.89C107.953 112.357 107.793 112.75 107.473 113.07C107.153 113.377 106.746 113.53 106.253 113.53Z" fill="white"/>
    <path d="M117.448 102.45C117.315 101.89 117.081 101.47 116.748 101.19C116.428 100.91 115.961 100.77 115.348 100.77C114.428 100.77 113.748 101.143 113.308 101.89C112.881 102.623 112.661 103.823 112.648 105.49C112.968 104.957 113.435 104.543 114.048 104.25C114.661 103.943 115.328 103.79 116.048 103.79C116.915 103.79 117.681 103.977 118.348 104.35C119.015 104.723 119.535 105.27 119.908 105.99C120.281 106.697 120.468 107.55 120.468 108.55C120.468 109.497 120.275 110.343 119.888 111.09C119.515 111.823 118.961 112.397 118.228 112.81C117.495 113.223 116.621 113.43 115.608 113.43C114.221 113.43 113.128 113.123 112.328 112.51C111.541 111.897 110.988 111.043 110.668 109.95C110.361 108.843 110.208 107.483 110.208 105.87C110.208 103.43 110.628 101.59 111.468 100.35C112.308 99.0966 113.635 98.47 115.448 98.47C116.848 98.47 117.935 98.85 118.708 99.61C119.481 100.37 119.928 101.317 120.048 102.45H117.448ZM115.408 106.09C114.701 106.09 114.108 106.297 113.628 106.71C113.148 107.123 112.908 107.723 112.908 108.51C112.908 109.297 113.128 109.917 113.568 110.37C114.021 110.823 114.655 111.05 115.468 111.05C116.188 111.05 116.755 110.83 117.168 110.39C117.595 109.95 117.808 109.357 117.808 108.61C117.808 107.837 117.601 107.223 117.188 106.77C116.788 106.317 116.195 106.09 115.408 106.09Z" fill="white"/>
    <path d="M129.561 113.39L125.801 108.67V113.39H123.001V98.59H125.801V107.01L129.521 102.31H133.161L128.281 107.87L133.201 113.39H129.561Z" fill="white"/>
    <defs>
        <filter id="filter0_f" x="30.5547" y="21" width="88.8897" height="64" filterUnits="userSpaceOnUse" color-interpolation-filters="sRGB">
            <feFlood flood-opacity="0" result="BackgroundImageFix"/>
            <feBlend mode="normal" in="SourceGraphic" in2="BackgroundImageFix" result="shape"/>
            <feGaussianBlur stdDeviation="7.5" result="effect1_foregroundBlur"/>
        </filter>
        <filter id="filter1_f" x="34.0195" y="55" width="55.9808" height="60" filterUnits="userSpaceOnUse" color-interpolation-filters="sRGB">
            <feFlood flood-opacity="0" result="BackgroundImageFix"/>
            <feBlend mode="normal" in="SourceGraphic" in2="BackgroundImageFix" result="shape"/>
            <feGaussianBlur stdDeviation="7.5" result="effect1_foregroundBlur"/>
        </filter>
        <linearGradient id="paint0_linear" x1="75" y1="101.026" x2="75" y2="40" gradientUnits="userSpaceOnUse">
            <stop stop-color="#EE26FF"/>
            <stop offset="0.994792" stop-color="#FF002E"/>
        </linearGradient>
        <linearGradient id="paint1_linear" x1="75" y1="105.162" x2="75" y2="36" gradientUnits="userSpaceOnUse">
            <stop stop-color="#EE26FF"/>
            <stop offset="0.994792" stop-color="#FF002E"/>
        </linearGradient>
        <radialGradient id="paint2_radial" cx="0" cy="0" r="1" gradientUnits="userSpaceOnUse" gradientTransform="translate(78.5 73) rotate(27.2996) scale(69.7711 570.039)">
            <stop stop-color="#FFEA7A"/>
            <stop offset="0.429316" stop-color="#FFD600"/>
            <stop offset="1" stop-color="#FFAE28"/>
        </radialGradient>
        <radialGradient id="paint3_radial" cx="0" cy="0" r="1" gradientUnits="userSpaceOnUse" gradientTransform="translate(75 70) rotate(90) scale(62)">
            <stop offset="0.427083" stop-color="white" stop-opacity="0"/>
            <stop offset="0.598958" stop-color="#1DFF33" stop-opacity="0.577102"/>
            <stop offset="0.803121" stop-color="#BF1F89" stop-opacity="0.765056"/>
            <stop offset="1" stop-color="#2170FF"/>
        </radialGradient>
        <linearGradient id="paint4_linear" x1="75" y1="101.026" x2="75" y2="40" gradientUnits="userSpaceOnUse">
            <stop stop-color="#EE26FF"/>
            <stop offset="0.994792" stop-color="#FF002E"/>
        </linearGradient>
        <radialGradient id="paint5_radial" cx="0" cy="0" r="1" gradientUnits="userSpaceOnUse" gradientTransform="translate(75 73.5429) rotate(-180) scale(62 69.6163)">
            <stop stop-color="#5BFF21"/>
            <stop offset="0.0001" stop-color="#5BFF21"/>
            <stop offset="1" stop-color="#21BCFF"/>
        </radialGradient>
    </defs>
</svg>
