<svg viewBox="0 0 130 31" fill="none" xmlns="http://www.w3.org/2000/svg">
    <path d="M8.66276 30.5182L15.7613 26.0985V17.0733C15.7613 16.8972 15.73 16.7282 15.6771 16.5664L8.50635 21.0305C8.60741 21.2701 8.66276 21.5314 8.66276 21.801V30.5182V30.5182Z" fill="white"/>
    <path d="M7.09857 0.972656L0 5.39237V14.4175C0 14.5937 0.0312818 14.7627 0.0842203 14.9245L7.25498 10.4604C7.15391 10.2207 7.09857 9.95948 7.09857 9.68984V0.972656V0.972656Z" fill="white"/>
    <path d="M7.4944 10.875L0.300781 15.3546C0.422299 15.5248 0.578708 15.6734 0.763993 15.7897L7.73022 20.1267C7.94197 20.2585 8.12244 20.4251 8.26682 20.6168L15.4616 16.1384C15.3401 15.9682 15.1837 15.8196 14.9984 15.7034L8.03221 11.3663C7.81925 11.2333 7.63998 11.0667 7.4944 10.875Z" fill="white"/>
    <path d="M7.09862 30.5182V22.5093L0.689453 26.5287L7.09862 30.5182Z" fill="white"/>
    <path d="M34.1139 15.3861C34.245 15.2675 34.3605 15.1369 34.4628 14.9931C34.5891 14.8133 34.6757 14.6144 34.7299 14.4011C34.7888 14.1722 34.8177 13.9337 34.8177 13.694C34.8177 13.3057 34.7539 12.9486 34.6288 12.6322C34.5013 12.3134 34.3136 12.0282 34.0718 11.7873C33.7637 11.4805 33.3944 11.2481 32.9757 11.0947C32.5654 10.9449 32.1287 10.8682 31.6775 10.8682H26.7265C26.5509 10.8682 26.4077 11.0108 26.4077 11.1857V20.7286C26.4077 20.9036 26.5509 21.0462 26.7265 21.0462H31.8688C32.3645 21.0462 32.8301 20.9611 33.2548 20.7933C33.6771 20.6268 34.0573 20.3883 34.3822 20.0875C34.689 19.8047 34.932 19.4643 35.1041 19.076C35.2749 18.6877 35.3615 18.2599 35.3615 17.8057C35.3615 17.1382 35.1811 16.5474 34.8201 16.0429C34.6204 15.7804 34.3834 15.5599 34.1139 15.3861ZM31.8892 18.9514H28.7358V16.6624H31.9699C32.1383 16.6624 32.2971 16.6972 32.4547 16.7703C32.6159 16.8446 32.7495 16.9393 32.853 17.0507C33.007 17.2281 33.0816 17.4702 33.0816 17.7913C33.0816 17.9555 33.0551 18.1113 33.0046 18.2527C32.9552 18.3869 32.8903 18.4936 32.8133 18.5715C32.6905 18.6854 32.5462 18.7788 32.3825 18.8495C32.2213 18.9178 32.0613 18.9514 31.8892 18.9514ZM32.3272 14.3363C32.267 14.4047 32.1936 14.4598 32.1046 14.5065C32.0264 14.5473 31.9398 14.5664 31.8399 14.5664H28.7358V12.9642H31.5861C31.8929 12.9642 32.1275 13.0421 32.3043 13.2039C32.4511 13.3357 32.5221 13.5214 32.5221 13.7731C32.5209 13.9984 32.4559 14.1841 32.3272 14.3363Z" fill="white"/>
    <path d="M39.6015 10.8691H37.9111C37.7343 10.8691 37.5923 11.0118 37.5923 11.1867V20.7296C37.5923 20.9046 37.7355 21.0472 37.9111 21.0472H45.1396C45.3165 21.0472 45.4585 20.9046 45.4585 20.7296V19.222C45.4585 19.047 45.3153 18.9044 45.1396 18.9044H39.9204V11.1867C39.9204 11.0106 39.7772 10.8691 39.6015 10.8691Z" fill="white"/>
    <path d="M55.3628 12.0855C54.8876 11.6121 54.3173 11.2406 53.6664 10.9806C53.0191 10.7229 52.2936 10.5923 51.5116 10.5923C50.7043 10.5923 49.9547 10.7373 49.2857 11.0237C48.6144 11.3101 48.0333 11.7128 47.5592 12.2185C47.1068 12.6907 46.7519 13.2444 46.5041 13.8627C46.2562 14.4811 46.1299 15.1522 46.1299 15.8581C46.1299 16.5328 46.2586 17.1883 46.5125 17.8079C46.7663 18.4251 47.1117 18.9703 47.5412 19.4305C48.0152 19.9362 48.5975 20.3485 49.2701 20.6565C49.9475 20.9657 50.7018 21.1227 51.5116 21.1227C52.3165 21.1227 53.0564 20.9836 53.7121 20.708C54.3654 20.4324 54.9429 20.0417 55.429 19.548C55.8934 19.0746 56.2544 18.5173 56.5034 17.8918C56.7513 17.2686 56.8776 16.5843 56.8776 15.8581C56.8776 15.1306 56.7465 14.438 56.4866 13.798C56.2267 13.1569 55.8501 12.5816 55.3628 12.0855ZM54.5495 15.8569C54.5495 16.3039 54.4761 16.7173 54.3305 17.0828C54.185 17.4496 53.9852 17.7707 53.7362 18.038C53.4571 18.3352 53.1226 18.5689 52.7424 18.7306C51.9724 19.0602 51.0183 19.0554 50.2675 18.7235C49.8885 18.5569 49.5601 18.322 49.2881 18.0224C49.0379 17.7539 48.8346 17.4316 48.683 17.0637C48.5338 16.6994 48.458 16.2931 48.458 15.8557C48.458 15.4087 48.5338 14.9964 48.683 14.6321C48.8334 14.2642 49.0379 13.9406 49.2869 13.6734C49.5661 13.3762 49.8993 13.1437 50.2795 12.9807C50.6609 12.8177 51.0748 12.735 51.5104 12.735C51.9351 12.735 52.3441 12.8177 52.7255 12.9807C53.1069 13.1449 53.4426 13.3738 53.7217 13.6614C53.9708 13.9191 54.1729 14.2366 54.3221 14.6069C54.4737 14.9796 54.5495 15.4003 54.5495 15.8569Z" fill="white"/>
    <path d="M61.395 13.7059C61.6741 13.4267 62.0002 13.211 62.3659 13.0624C63.1792 12.7304 64.2152 12.7808 64.9767 13.1067C65.304 13.2469 65.9982 13.7742 66.3026 14.0115C66.388 14.0774 66.5071 14.0654 66.5793 13.9852L67.7392 12.6861C67.8174 12.5986 67.8077 12.4656 67.7151 12.3925C67.3181 12.0809 66.3146 11.3127 65.8105 11.1006C65.1668 10.831 64.4113 10.6943 63.5618 10.6943C62.7798 10.6943 62.0507 10.8286 61.3974 11.091C60.7429 11.3559 60.1702 11.7298 59.6925 12.2055C59.2185 12.6897 58.8443 13.2529 58.5808 13.8797C58.3149 14.5101 58.1802 15.2039 58.1802 15.9433C58.1802 16.6935 58.3149 17.3958 58.5796 18.0298C58.8443 18.6661 59.2317 19.2342 59.7286 19.7171C60.2135 20.1893 60.785 20.562 61.4275 20.8256C62.0699 21.0893 62.7882 21.2235 63.5606 21.2235C64.4064 21.2235 65.162 21.0917 65.8057 20.8304C66.3158 20.6231 67.3217 19.8238 67.7139 19.5038C67.8041 19.4307 67.8126 19.2989 67.7343 19.2114L66.5781 17.9327C66.5071 17.8536 66.3892 17.8416 66.3038 17.9063C65.9994 18.1388 65.3028 18.6589 64.9731 18.8027C64.2127 19.1371 63.1913 19.1958 62.3467 18.8339C61.9641 18.6697 61.6296 18.4396 61.3457 18.1472C61.0978 17.9003 60.8945 17.5876 60.7405 17.216C60.5865 16.8457 60.5083 16.4203 60.5083 15.9505C60.5083 15.5035 60.5889 15.0805 60.7489 14.6934C60.9089 14.3051 61.1267 13.9732 61.395 13.7059Z" fill="white"/>
    <path d="M78.9649 10.8691H76.7438C76.5935 10.8691 76.4527 10.9422 76.3649 11.0633L73.8792 14.5518H72.3608V11.1867C72.3608 11.0118 72.2176 10.8691 72.042 10.8691H70.3515C70.1759 10.8691 70.0327 11.0118 70.0327 11.1867V20.7296C70.0327 20.9046 70.1759 21.0472 70.3515 21.0472H72.042C72.2176 21.0472 72.3608 20.9046 72.3608 20.7296V16.6946H73.9044L76.6308 20.8375C76.7162 20.9681 76.863 21.046 77.0194 21.046H79.1898C79.3114 21.046 79.3848 20.9118 79.3186 20.8099L75.8848 15.5657L79.09 11.1088C79.1622 11.0094 79.09 10.8691 78.9649 10.8691Z" fill="white"/>
    <path d="M83.4887 13.7059C83.7679 13.4267 84.0951 13.2098 84.4597 13.0624C85.273 12.7316 86.3089 12.7808 87.0705 13.1067C87.3978 13.2469 88.092 13.7742 88.3964 14.0115C88.4818 14.0774 88.6009 14.0654 88.6731 13.9852L89.8329 12.6861C89.9112 12.5986 89.9015 12.4656 89.8089 12.3925C89.4118 12.0809 88.4084 11.3115 87.9043 11.1006C87.2606 10.831 86.505 10.6943 85.6556 10.6943C84.8736 10.6943 84.1445 10.8286 83.4911 11.091C82.8366 11.3559 82.2639 11.7298 81.7863 12.2055C81.3122 12.6885 80.9381 13.2517 80.6746 13.8797C80.4087 14.5101 80.2739 15.2051 80.2739 15.9433C80.2739 16.6923 80.4087 17.3946 80.6734 18.0298C80.9393 18.6661 81.3255 19.2342 81.8224 19.7171C82.3072 20.1893 82.8775 20.562 83.52 20.8256C84.1637 21.0893 84.882 21.2235 85.6544 21.2235C86.5002 21.2235 87.2558 21.0917 87.8995 20.8304C88.4096 20.6231 89.4155 19.8238 89.8089 19.5038C89.8991 19.4307 89.9075 19.2989 89.8293 19.2114L88.6731 17.9327C88.6021 17.8536 88.483 17.8416 88.3988 17.9063C88.0944 18.1388 87.3966 18.6589 87.0681 18.8027C86.3065 19.1371 85.285 19.1946 84.4416 18.8339C84.0602 18.6697 83.7246 18.4396 83.4406 18.1472C83.194 17.9015 82.9894 17.5876 82.8354 17.216C82.6814 16.8445 82.6032 16.4191 82.6032 15.9505C82.6032 15.5023 82.6838 15.0793 82.8439 14.6934C83.0039 14.3051 83.2204 13.9732 83.4887 13.7059Z" fill="white"/>
    <path d="M98.7242 14.4512H94.2978V11.0861C94.2978 10.9112 94.1546 10.7686 93.979 10.7686H92.2886C92.1129 10.7686 91.9697 10.9112 91.9697 11.0861V20.629C91.9697 20.804 92.1129 20.9466 92.2886 20.9466H93.979C94.1546 20.9466 94.2978 20.804 94.2978 20.629V16.594H98.7242V20.629C98.7242 20.804 98.8674 20.9466 99.0431 20.9466H100.732C100.909 20.9466 101.051 20.804 101.051 20.629V11.0861C101.051 10.9112 100.908 10.7686 100.732 10.7686H99.0431C98.8674 10.7686 98.7242 10.9112 98.7242 11.0861V14.4512V14.4512Z" fill="white"/>
    <path d="M107.14 11.1436L102.828 20.8327C102.784 20.9333 102.857 21.0472 102.969 21.0472H104.913C105.096 21.0472 105.262 20.9405 105.337 20.7728L105.998 19.2927H110.722L111.399 20.7764C111.475 20.9417 111.64 21.0472 111.822 21.0472H113.798C113.909 21.0472 113.984 20.9333 113.939 20.8327L109.627 11.1436C109.553 10.977 109.387 10.8692 109.202 10.8692H107.565C107.381 10.868 107.215 10.9758 107.14 11.1436ZM109.823 17.15H106.906L108.345 13.5008L109.823 17.15Z" fill="white"/>
    <path d="M116.039 21.0472H117.696C117.873 21.0472 118.015 20.9046 118.015 20.7296V11.1867C118.015 11.0118 117.872 10.8691 117.696 10.8691H116.039C115.863 10.8691 115.72 11.0118 115.72 11.1867V20.7296C115.72 20.9046 115.863 21.0472 116.039 21.0472Z" fill="white"/>
    <path d="M128.134 17.9203C128.311 17.8257 128.474 17.7178 128.622 17.6004C128.853 17.4158 129.064 17.2061 129.249 16.976C129.747 16.3384 130 15.5679 130 14.6834C130 14.1334 129.897 13.624 129.693 13.1711C129.491 12.724 129.214 12.3226 128.865 11.9762C128.496 11.6203 128.067 11.3435 127.589 11.1541C127.112 10.966 126.597 10.8701 126.058 10.8701H121.333C121.156 10.8701 121.014 11.0127 121.014 11.1877V20.7306C121.014 20.9055 121.157 21.0482 121.333 21.0482H123.022C123.197 21.0482 123.341 20.9055 123.341 20.7306V18.45H125.811L127.233 20.8241C127.317 20.9643 127.467 21.0494 127.631 21.0494H129.846C129.933 21.0494 129.986 20.9547 129.941 20.8804L128.134 17.9203ZM123.342 13.044H126.015C126.27 13.044 126.513 13.0944 126.735 13.1926C126.954 13.2909 127.124 13.4191 127.272 13.6037C127.542 13.8889 127.672 14.2436 127.672 14.6906C127.672 14.8992 127.635 15.1065 127.562 15.3054C127.49 15.5031 127.384 15.6733 127.228 15.8399C127.109 15.9837 126.954 16.094 126.758 16.1778C126.555 16.2629 126.333 16.3049 126.096 16.3049H123.342V13.044V13.044Z" fill="white"/>
</svg>
