<svg viewBox="0 0 145 35" fill="none" xmlns="http://www.w3.org/2000/svg">
    <rect x="0.654297" y="0.563477" width="143.681" height="34.3635" rx="17.1817" fill="#131313"/>
    <path d="M23.5428 14.9393C23.134 15.2973 22.8035 15.7425 22.5803 16.2458L28.4684 20.6182C28.8828 20.2616 29.2186 19.8161 29.4462 19.3114L23.5428 14.9393Z" fill="white"/>
    <path d="M29.7661 18.0517L24.6529 14.2649C25.076 14.0999 25.5364 14.0093 26.018 14.0093C28.0938 14.0093 29.7767 15.6921 29.7767 17.768C29.7767 17.8635 29.7731 17.9581 29.7661 18.0517Z" fill="white"/>
    <path d="M27.372 21.2754L22.269 17.4962C22.2626 17.5859 22.2593 17.6766 22.2593 17.768C22.2593 19.8439 23.9421 21.5267 26.018 21.5267C26.4953 21.5267 26.9519 21.4377 27.372 21.2754Z" fill="white"/>
    <path d="M19.9575 12.2841C19.4098 12.5501 18.8875 12.8383 18.3941 13.1373L19.9114 14.2641C20.4315 13.9749 20.9801 13.7038 21.5522 13.4652L19.9575 12.2841Z" fill="white"/>
    <path d="M22.9149 12.9778L21.2282 11.7286C22.6998 11.1572 24.3153 10.7806 26.0168 10.7806C32.9156 10.7806 38.3993 16.9719 38.6204 17.2369L39.1069 17.8119L38.6204 18.3869C38.61 18.3973 38.5883 18.4207 38.5557 18.4559C38.2342 18.8027 36.85 20.2962 34.7622 21.7518L33.2206 20.6101C34.8386 19.562 36.0843 18.4263 36.7628 17.7679C35.2592 16.3084 30.9695 12.5057 26.0168 12.5057C24.9445 12.5056 23.9034 12.6837 22.9149 12.9778Z" fill="white"/>
    <path d="M32.1053 21.2807C31.5791 21.5725 31.0238 21.8458 30.4446 22.0856L32.111 23.323C32.6647 23.0519 33.192 22.7582 33.6894 22.4538L32.1053 21.2807Z" fill="white"/>
    <path d="M30.8744 23.8693L29.1079 22.561C28.1226 22.8532 27.0851 23.0302 26.0168 23.0302C21.0641 23.0302 16.7744 19.2275 15.2708 17.7679C15.9482 17.1104 17.1908 15.9773 18.8047 14.9306L17.3216 13.8322C14.9966 15.4373 13.5256 17.102 13.4133 17.2369L12.9268 17.8119L13.4133 18.3869C13.6347 18.652 19.074 24.8432 26.0168 24.8432C27.7488 24.8432 29.3872 24.4552 30.8744 23.8693Z" fill="white"/>
    <path d="M48.5258 8.87763C48.4818 8.83362 48.4373 8.83362 48.3933 8.83362H47.4643V15.4234H48.8353V11.8857C48.8353 11.8577 48.8398 11.8296 48.8444 11.8002C48.8544 11.7367 48.8654 11.6667 48.8353 11.5762C48.7913 11.4432 48.7913 11.3547 48.7913 11.2222L51.887 15.1579C51.931 15.2904 52.0195 15.3349 52.108 15.3789C52.1965 15.4229 52.285 15.4229 52.4175 15.4229H53.2135V8.87717H51.8425V12.3708C51.8425 12.4169 51.8372 12.463 51.8321 12.5072C51.8225 12.5904 51.8137 12.667 51.8425 12.7248C51.8865 12.8133 51.8865 12.9463 51.8865 13.0788L48.7468 9.09865C48.7322 9.084 48.7126 9.06934 48.693 9.05467C48.6537 9.02527 48.6143 8.99581 48.6143 8.96613C48.6143 8.93861 48.5973 8.92812 48.5739 8.91369C48.5595 8.9048 48.5426 8.89442 48.5258 8.87763Z" fill="white"/>
    <path fill-rule="evenodd" clip-rule="evenodd" d="M61.2179 13.4328C61.3949 13.0348 61.4834 12.5928 61.4834 12.1062C61.4834 11.6638 61.3949 11.1772 61.2179 10.7797C61.0409 10.3817 60.7758 10.0277 60.5103 9.71815C60.2448 9.40863 59.8908 9.18762 59.4488 9.01062C59.0068 8.83362 58.5643 8.74512 58.0337 8.74512C57.5032 8.74512 57.0607 8.83362 56.6187 9.01062C56.1766 9.18762 55.8226 9.40863 55.5131 9.71815C55.2036 10.0281 54.9826 10.3817 54.8056 10.7797C54.6286 11.1777 54.5401 11.6197 54.5401 12.1062C54.5401 12.5928 54.6286 13.0348 54.8056 13.4328C54.9826 13.8308 55.2036 14.1848 55.5131 14.4943C55.8226 14.8039 56.1766 15.0249 56.6187 15.2019C57.0607 15.3789 57.5032 15.4674 58.0337 15.4674C58.5643 15.4674 59.0068 15.3789 59.4488 15.2019C59.8468 15.0249 60.2008 14.8039 60.5103 14.4943C60.8198 14.1844 61.0409 13.8308 61.2179 13.4328ZM59.7588 11.2217C59.8473 11.4872 59.8913 11.7967 59.8913 12.1062C59.8913 12.4598 59.8468 12.7253 59.7588 12.9908C59.6772 13.2295 59.5577 13.4536 59.4048 13.6543C59.2718 13.8313 59.0508 13.9638 58.8298 14.0523C58.6088 14.1408 58.3433 14.1848 58.0337 14.1848C57.7242 14.1848 57.4587 14.1408 57.2377 14.0523C57.0167 13.9638 56.7952 13.8313 56.6627 13.6543C56.5297 13.4773 56.3972 13.2563 56.3087 12.9908C56.2202 12.7253 56.1762 12.4158 56.1762 12.1062C56.1735 11.8063 56.2183 11.5077 56.3087 11.2217C56.3903 10.983 56.5098 10.7589 56.6627 10.5582C56.7957 10.3812 57.0167 10.2487 57.2377 10.1602C57.4587 10.0717 57.7242 10.0277 58.0337 10.0277C58.3433 10.0277 58.6088 10.0717 58.8298 10.1602C59.0508 10.2487 59.2723 10.3812 59.4048 10.5582C59.5578 10.7588 59.6774 10.9829 59.7588 11.2217Z" fill="white"/>
    <path d="M70.1068 10.0277V8.83362H64.844V10.0277H66.7016V15.4229H68.2492V10.0277H70.1068Z" fill="white"/>
    <path d="M75.6345 15.4229H77.1821V8.83362H75.6345V11.5752H72.9369V8.83362H71.3893V15.4229H72.9369V12.6368H75.6345V15.4229Z" fill="white"/>
    <path d="M79.0841 15.4229H80.6317V8.83362H79.0841V15.4229Z" fill="white"/>
    <path fill-rule="evenodd" clip-rule="evenodd" d="M84.0809 15.4224V12.9903H84.522C84.6105 12.9903 84.699 12.9903 84.7875 13.0343C84.8665 13.0691 84.9297 13.1323 84.9645 13.2113L86.07 15.1129C86.203 15.3339 86.3796 15.4224 86.6451 15.4224H88.0161L86.601 13.1228C86.557 13.0343 86.4685 12.9458 86.38 12.8573C86.2972 12.8295 86.2315 12.7845 86.1723 12.7439C86.1368 12.7196 86.1037 12.6968 86.0705 12.6803L86.0721 12.6797C86.2926 12.5914 86.5133 12.503 86.6455 12.3708L86.6495 12.3669C86.7807 12.2357 86.9123 12.104 87.0435 11.9288C87.1765 11.7522 87.265 11.6193 87.309 11.3983C87.3152 11.3673 87.3215 11.3373 87.3275 11.3079C87.365 11.1269 87.3975 10.9693 87.3975 10.7792C87.3975 10.4697 87.3975 10.2042 87.265 9.98318C87.1325 9.76217 86.9995 9.54115 86.7785 9.36415C86.5575 9.18715 86.2924 9.05463 85.9385 8.96613C85.5849 8.87764 85.1869 8.83362 84.7004 8.83362H82.5333V15.4224H84.0809ZM84.6999 11.9292H84.0809L84.0804 9.98318H84.6994C85.0975 9.98318 85.407 10.1162 85.584 10.2487C85.761 10.3817 85.8495 10.6027 85.8495 10.9122C85.8495 11.0447 85.8495 11.2217 85.8055 11.3102C85.7614 11.3987 85.673 11.5312 85.5844 11.6197C85.4959 11.7082 85.363 11.7963 85.2304 11.8408C85.0979 11.8852 84.9209 11.9292 84.6999 11.9292Z" fill="white"/>
    <path fill-rule="evenodd" clip-rule="evenodd" d="M95.0039 13.4328C95.1809 13.0348 95.2694 12.5928 95.2694 12.1062C95.2694 11.6638 95.1809 11.2217 95.0039 10.9122C94.8269 10.5142 94.5618 10.1602 94.2963 9.85067C94.0308 9.54115 93.6768 9.32013 93.2348 9.14313C92.7928 8.96613 92.3503 8.87763 91.8197 8.87763H89.2546V15.4674H91.8197C92.3503 15.4674 92.7928 15.3789 93.2348 15.2019C93.6328 15.0249 93.9868 14.8043 94.2963 14.4943C94.6059 14.1844 94.8269 13.8308 95.0039 13.4328ZM93.5448 11.2217C93.6333 11.4872 93.6773 11.7967 93.6773 12.1062C93.6773 12.4598 93.6328 12.7253 93.5448 12.9908C93.4753 13.1994 93.3786 13.3533 93.2758 13.5169C93.2478 13.5616 93.2193 13.6069 93.1908 13.6543C93.0578 13.8753 92.8368 14.0078 92.6158 14.0963C92.3947 14.1848 92.1292 14.2288 91.8197 14.2288H90.8027V9.98365H91.8197C92.1292 9.98365 92.3947 10.0277 92.6158 10.1162C92.8256 10.2383 93.0188 10.3868 93.1908 10.5582C93.3438 10.7588 93.4633 10.9829 93.5448 11.2217Z" fill="white"/>
    <path d="M99.028 12.1062H96.5959V13.2558H99.028V12.1062Z" fill="white"/>
    <path fill-rule="evenodd" clip-rule="evenodd" d="M102.256 15.4229V13.2118L103.008 13.2113C103.494 13.2113 103.847 13.123 104.201 13.0346L104.202 13.0343C104.555 12.9463 104.821 12.7693 105.042 12.5923C105.263 12.4153 105.396 12.1943 105.528 11.8848C105.661 11.5752 105.705 11.2657 105.705 10.9562C105.705 10.6467 105.705 10.3372 105.573 10.1162C105.553 10.0826 105.533 10.0481 105.512 10.013C105.398 9.81641 105.274 9.60284 105.086 9.45265C104.865 9.27611 104.556 9.14313 104.246 9.01062C103.937 8.87764 103.539 8.83362 103.052 8.83362H100.709V15.4229H102.256ZM103.052 12.0618H102.212V9.98318H103.008C103.174 9.98721 103.338 10.0171 103.494 10.0717C103.627 10.1185 103.748 10.1939 103.848 10.2927C103.936 10.3848 104.011 10.489 104.069 10.6022C104.124 10.7278 104.155 10.8631 104.158 11.0002C104.158 11.3542 104.025 11.6193 103.892 11.7963C103.76 11.9733 103.45 12.0618 103.052 12.0618Z" fill="white"/>
    <path fill-rule="evenodd" clip-rule="evenodd" d="M111.366 15.4229H112.56L109.995 8.83362H108.447L105.882 15.4229H107.076C107.208 15.4229 107.296 15.379 107.384 15.3353L107.386 15.3344C107.474 15.2904 107.519 15.2019 107.563 15.1134L107.961 13.9638H110.482L110.88 15.1134L110.88 15.1152C110.925 15.2031 110.969 15.2907 111.057 15.3344C111.145 15.3789 111.234 15.4229 111.366 15.4229ZM110.128 12.9023H108.315L108.934 11.1332C108.978 11.0447 109.023 10.9122 109.067 10.7352L109.199 10.2047C109.278 10.3591 109.337 10.5225 109.376 10.6912L109.509 11.0892L110.128 12.9023Z" fill="white"/>
    <path fill-rule="evenodd" clip-rule="evenodd" d="M115.302 15.4224V12.9903H115.743C115.831 12.9903 115.92 12.9903 116.008 13.0343C116.087 13.0691 116.151 13.1323 116.185 13.2113L117.291 15.1129C117.424 15.3339 117.6 15.4224 117.866 15.4224H119.237L117.822 13.1228C117.778 13.0343 117.689 12.9458 117.601 12.8573C117.518 12.8295 117.452 12.7845 117.393 12.7439C117.358 12.7196 117.325 12.6968 117.291 12.6803L117.293 12.6797C117.513 12.5914 117.734 12.503 117.866 12.3708L117.871 12.3667C118.002 12.2355 118.133 12.1039 118.264 11.9288C118.397 11.7522 118.486 11.6193 118.53 11.3983C118.536 11.3674 118.542 11.3373 118.548 11.3079C118.586 11.1269 118.618 10.9693 118.618 10.7792C118.618 10.4697 118.618 10.2042 118.486 9.98318C118.353 9.76217 118.22 9.54115 117.999 9.36415C117.778 9.18715 117.513 9.05463 117.159 8.96613C116.806 8.87764 116.408 8.83362 115.921 8.83362H113.754V15.4224H115.302ZM115.921 11.9292H115.302L115.301 9.98318H115.92C116.318 9.98318 116.628 10.1162 116.805 10.2487C116.982 10.3817 117.07 10.6027 117.07 10.9122C117.07 11.0447 117.07 11.2217 117.026 11.3102C116.982 11.3987 116.894 11.5312 116.805 11.6197C116.717 11.7082 116.584 11.7967 116.451 11.8408C116.319 11.8852 116.142 11.9292 115.921 11.9292Z" fill="white"/>
    <path d="M124.987 10.0277V8.83362H119.724V10.0277H121.582V15.4229H123.129V10.0277H124.987Z" fill="white"/>
    <path d="M129.63 15.4229V12.9023L132.062 8.74558H130.691C130.669 8.74558 130.636 8.75664 130.602 8.76767C130.569 8.77865 130.536 8.7896 130.514 8.7896C130.47 8.83408 130.382 8.8781 130.382 8.8781L130.293 8.9666C130.249 9.01062 130.205 9.0551 130.205 9.09912L129.276 11.0007C129.245 11.0638 129.219 11.1213 129.194 11.1752C129.151 11.2722 129.112 11.3576 129.055 11.4427C128.967 11.5753 128.922 11.7082 128.878 11.8408L128.877 11.8353C128.833 11.7046 128.789 11.5734 128.701 11.4427C128.657 11.3765 128.624 11.2991 128.591 11.2217C128.558 11.1443 128.525 11.067 128.48 11.0007L127.552 9.09912L127.551 9.09817C127.507 9.00999 127.463 8.92242 127.375 8.8781C127.286 8.83362 127.198 8.7896 127.065 8.7896H125.694L128.082 12.9023V15.4229H129.63Z" fill="white"/>
    <path d="M52.1965 20.9062V19.7121H46.9338V20.9062H48.7913V26.3014H50.3389V20.9062H52.1965Z" fill="white"/>
    <path fill-rule="evenodd" clip-rule="evenodd" d="M55.0711 26.3014V23.8693C55.0711 23.8693 55.5131 23.8693 55.5122 23.8688C55.6007 23.8688 55.6892 23.8688 55.7777 23.9128C55.8567 23.9476 55.9199 24.0108 55.9547 24.0898L57.0602 25.9914C57.1932 26.2124 57.3698 26.3009 57.6353 26.3009H59.0063L57.5912 24.0013C57.5472 23.9128 57.4587 23.8243 57.3702 23.7358C57.2874 23.708 57.2217 23.663 57.1625 23.6224C57.1271 23.5981 57.0939 23.5753 57.0607 23.5588L57.0623 23.5582C57.2828 23.4699 57.5035 23.3815 57.6357 23.2493L57.6398 23.2452C57.771 23.1141 57.9026 22.9825 58.0337 22.8073C58.1667 22.6307 58.2552 22.4978 58.2992 22.2767C58.3055 22.2459 58.3117 22.2158 58.3177 22.1864C58.3552 22.0054 58.3877 21.8478 58.3877 21.6577C58.3877 21.3482 58.3877 21.0827 58.2552 20.8617L58.2537 20.8591C58.1212 20.6389 57.9888 20.419 57.7687 20.2426C57.5477 20.0656 57.2827 19.9331 56.9287 19.8446C56.5751 19.7561 56.1771 19.7121 55.6906 19.7121H53.5235V26.3014H55.0711ZM55.6901 22.8077H55.0711L55.0706 20.8617H55.6897C56.0877 20.8617 56.3972 20.9942 56.5742 21.1272C56.7512 21.2602 56.8397 21.4812 56.8397 21.7907C56.8397 21.9232 56.8397 22.1002 56.7957 22.1887C56.7516 22.2772 56.6632 22.4097 56.5747 22.4982C56.4862 22.5867 56.3532 22.6748 56.2206 22.7192C56.0881 22.7637 55.9111 22.8077 55.6901 22.8077Z" fill="white"/>
    <path fill-rule="evenodd" clip-rule="evenodd" d="M65.1976 26.3014H66.3916L63.8265 19.7121H62.2789L59.7138 26.3014H60.9079C61.0395 26.3014 61.1277 26.2575 61.2156 26.2138L61.2174 26.2129C61.3059 26.1689 61.3504 26.0804 61.3944 25.9919L61.7924 24.8423H64.313L64.7111 25.9919L64.7119 25.9937C64.7561 26.0816 64.8002 26.1692 64.8881 26.2129C64.9766 26.2574 65.0651 26.3014 65.1976 26.3014ZM63.9595 23.7808H62.1464L62.7659 22.0117C62.8099 21.9232 62.8544 21.7907 62.8984 21.6137L63.0309 21.0832C63.1094 21.2376 63.1688 21.401 63.208 21.5697L63.3405 21.9677L63.9595 23.7808Z" fill="white"/>
    <path d="M71.8753 24.5768H71.7868C71.7618 24.5768 71.7797 24.5339 71.7917 24.505C71.8008 24.4831 71.8065 24.4693 71.7878 24.4883C71.7657 24.5107 71.7434 24.5218 71.7212 24.5329C71.6992 24.5439 71.6772 24.5549 71.6553 24.5768C71.6112 24.5989 71.5672 24.6319 71.5232 24.665C71.4787 24.6983 71.4342 24.7317 71.3898 24.7538L71.1243 24.8863C71.0358 24.9308 70.9473 24.9748 70.8147 24.9748H70.4167C70.1952 24.9748 69.9742 24.9308 69.7532 24.8423C69.5317 24.7538 69.3552 24.6213 69.1782 24.4443C69.0012 24.2673 68.8687 24.0463 68.7802 23.7808C68.6917 23.5153 68.6477 23.2502 68.6477 22.8962C68.6477 22.5422 68.6917 22.2772 68.7802 22.0117C68.8687 21.7462 69.0012 21.5252 69.1782 21.3482C69.3112 21.1272 69.5322 20.9947 69.7532 20.9062C69.9742 20.8177 70.2393 20.7736 70.5048 20.7736C70.6373 20.7736 70.7703 20.7736 70.9028 20.8177C70.9613 20.8373 71.0112 20.8483 71.0564 20.8582C71.1135 20.8707 71.1629 20.8816 71.2123 20.9062C71.3008 20.9502 71.3893 20.9947 71.4333 21.0387C71.4553 21.0604 71.4879 21.0821 71.5207 21.1039C71.5543 21.1263 71.588 21.1487 71.6103 21.1712C71.6324 21.1936 71.6547 21.2047 71.6769 21.2158C71.6989 21.2268 71.7209 21.2378 71.7428 21.2597C71.7868 21.3037 71.8313 21.3037 71.8753 21.3037C71.9639 21.3037 72.0083 21.3037 72.0523 21.2597L72.1849 21.1272L72.7154 20.4196C72.5829 20.2867 72.4504 20.1541 72.2734 20.0656L71.7428 19.8001C71.5658 19.7116 71.3448 19.6672 71.1238 19.6232C70.9028 19.5791 70.6818 19.5791 70.4163 19.5791C69.8857 19.5791 69.4432 19.6676 69.0012 19.8446C68.5592 20.0216 68.2052 20.2426 67.8957 20.5522C67.5861 20.8621 67.3651 21.2157 67.1881 21.6137C67.0111 22.0562 66.9226 22.4982 66.9226 22.9847C66.9226 23.4713 67.0111 23.9133 67.1436 24.3113C67.2762 24.7093 67.4972 25.0633 67.7627 25.3728C68.0282 25.6824 68.3817 25.9034 68.7797 26.0804C69.1777 26.2574 69.6642 26.3459 70.1508 26.3459C70.6813 26.3459 71.1678 26.2574 71.5658 26.0804C71.9639 25.9034 72.3174 25.6383 72.5829 25.2843L71.9639 24.6653C71.9639 24.6208 71.8753 24.5768 71.8753 24.5768Z" fill="white"/>
    <path d="M75.767 22.3657H75.5015L75.502 19.7566H73.9544V26.3459H75.502V23.5157H75.856C76.033 23.5157 76.1215 23.5157 76.21 23.5598L76.2118 23.5607C76.2997 23.6048 76.3873 23.6489 76.431 23.7368L77.9346 26.0364C77.9569 26.0585 77.968 26.0807 77.9791 26.103C77.9902 26.125 78.0012 26.147 78.0231 26.1689C78.0671 26.2134 78.1111 26.2574 78.1556 26.2574C78.1779 26.2574 78.2112 26.2684 78.2445 26.2795C78.2776 26.2904 78.3106 26.3014 78.3326 26.3014H79.9246L77.9346 23.2502C77.8461 23.1177 77.7576 23.0292 77.6691 22.9407C77.5806 22.8522 77.4921 22.8077 77.3595 22.7637C77.4037 22.7415 77.4367 22.7084 77.4698 22.6753C77.503 22.642 77.5362 22.6088 77.5806 22.5867C77.6377 22.5583 77.6763 22.5113 77.7203 22.4578C77.7444 22.4284 77.7702 22.3971 77.8016 22.3657L79.7472 19.7126H78.4206C78.2436 19.7126 78.1111 19.7126 78.0226 19.7566C77.9341 19.8006 77.8456 19.8451 77.7571 19.9776L76.2535 22.1447C76.165 22.2772 75.988 22.3657 75.767 22.3657Z" fill="white"/>
    <path d="M85.3634 20.9062V19.8006H81.1182V26.3894H85.3634V25.1954H82.6658V23.6033H84.7444V22.4537H82.6658V20.9062H85.3634Z" fill="white"/>
    <path fill-rule="evenodd" clip-rule="evenodd" d="M88.4591 26.3014V23.8693C88.4591 23.8693 88.9011 23.8693 88.9002 23.8688C88.9887 23.8688 89.0772 23.8688 89.1657 23.9128C89.2447 23.9476 89.3079 24.0108 89.3427 24.0898L90.4482 25.9914C90.5812 26.2124 90.7577 26.3009 91.0232 26.3009H92.3943L90.9792 24.0013C90.9352 23.9129 90.8467 23.8244 90.7582 23.7359C90.6754 23.7081 90.6097 23.663 90.5505 23.6224C90.515 23.5981 90.4818 23.5753 90.4487 23.5588L90.4502 23.5582C90.6707 23.4699 90.8915 23.3815 91.0237 23.2493L91.0279 23.2451C91.159 23.114 91.2906 22.9824 91.4217 22.8073C91.5547 22.6307 91.6432 22.4978 91.6872 22.2767C91.6934 22.2458 91.6996 22.2158 91.7057 22.1863C91.7431 22.0054 91.7757 21.8478 91.7757 21.6577C91.7757 21.3482 91.7757 21.0827 91.6432 20.8617C91.5107 20.6407 91.3777 20.4196 91.1567 20.2426C90.9357 20.0656 90.6706 19.9331 90.3166 19.8446C89.9631 19.7561 89.5651 19.7121 89.0786 19.7121H86.9115V26.3014H88.4591ZM89.0781 22.8077H88.4591L88.4586 20.8617H89.0776C89.4756 20.8617 89.7852 20.9947 89.9622 21.1272C90.1392 21.2602 90.2277 21.4812 90.2277 21.7907C90.2277 21.9232 90.2277 22.1002 90.1836 22.1887C90.1396 22.2772 90.0511 22.4097 89.9626 22.4982C89.8741 22.5867 89.7411 22.6748 89.6086 22.7192C89.4761 22.7637 89.2991 22.8077 89.0781 22.8077Z" fill="white"/>
    <path d="M97.2176 21.2135C97.2608 21.1699 97.3043 21.1259 97.3475 21.0391L97.613 20.3766C97.4814 20.245 97.3493 20.1568 97.2178 20.0689L97.215 20.067C97.0824 19.9785 96.9054 19.89 96.7284 19.846L96.1979 19.7135C96.0209 19.6695 95.8439 19.6695 95.6229 19.6695C95.2689 19.6695 94.9154 19.758 94.6499 19.8465C94.3844 19.9401 94.1429 20.0911 93.9423 20.2885C93.7658 20.4655 93.5888 20.6865 93.5003 20.9076C93.4118 21.1286 93.3678 21.3496 93.3678 21.6151C93.3678 21.9246 93.4118 22.1901 93.5003 22.4111C93.5813 22.61 93.7017 22.7905 93.8543 22.9417C93.9972 23.0841 94.1613 23.2035 94.3408 23.2957C94.4291 23.3399 94.5176 23.373 94.6061 23.4062C94.6946 23.4393 94.7831 23.4724 94.8713 23.5167C95.0479 23.6052 95.2249 23.6496 95.4019 23.6937C95.49 23.7158 95.5672 23.7489 95.6443 23.782C95.7219 23.8153 95.7996 23.8486 95.8884 23.8707C96.0654 23.9147 96.1539 24.0032 96.2424 24.0917C96.3309 24.2242 96.3749 24.3572 96.3749 24.4897C96.3749 24.7552 96.3309 24.9322 96.1539 25.0647C95.9769 25.1977 95.7559 25.2417 95.4904 25.2417C95.2694 25.2417 95.0924 25.1972 94.9598 25.1532C94.8939 25.1311 94.8279 25.0981 94.7619 25.0651C94.6952 25.0317 94.6284 24.9983 94.5618 24.9762C94.479 24.9484 94.4133 24.9034 94.3541 24.8628C94.3186 24.8385 94.2855 24.8157 94.2523 24.7992C94.1638 24.7547 94.0753 24.7107 93.9868 24.7107C93.9423 24.7107 93.8538 24.7107 93.8098 24.7547L93.6773 24.8873L93.2353 25.5948C93.3678 25.7278 93.5003 25.8603 93.6773 25.9488C93.8543 26.0373 94.0313 26.1258 94.2523 26.2143C94.4523 26.2937 94.6596 26.353 94.8713 26.3913C95.0923 26.4353 95.2693 26.4353 95.4903 26.4353C95.8883 26.4353 96.1979 26.3908 96.5074 26.2583C96.8169 26.1258 97.038 25.9488 97.259 25.7718C97.4317 25.5528 97.5799 25.3155 97.701 25.0643C97.834 24.7992 97.878 24.5337 97.878 24.2242C97.878 23.9587 97.834 23.6937 97.7455 23.5167C97.657 23.3397 97.524 23.1627 97.3915 23.0302C97.259 22.8972 97.082 22.7647 96.905 22.6762C96.7284 22.5877 96.5514 22.4992 96.3744 22.4551C96.2868 22.4331 96.1991 22.4001 96.1113 22.3672C96.0222 22.3338 95.933 22.3003 95.8439 22.2781C95.7557 22.256 95.6786 22.2229 95.6015 22.1898C95.5238 22.1565 95.4462 22.1232 95.3574 22.1011C95.2426 22.0726 95.165 22.0066 95.1005 21.9518C95.0656 21.922 95.0345 21.8956 95.0034 21.8801C94.9149 21.8361 94.8709 21.7031 94.8709 21.5706C94.8709 21.3936 94.9149 21.2171 95.0919 21.0841C95.2689 20.9511 95.4899 20.9071 95.7554 20.9071C95.9319 20.9071 96.0649 20.9071 96.1974 20.9511C96.3181 20.9879 96.4363 21.0321 96.5514 21.0836L96.8169 21.2161C96.9054 21.2602 96.9495 21.2602 97.038 21.2602H97.0393C97.0842 21.2602 97.1714 21.2602 97.215 21.2161L97.2176 21.2135Z" fill="white"/>
    <path d="M37.6926 25.4185L15.3601 8.87932L14.3871 10.1619L36.7195 26.7451L37.6926 25.4185Z" fill="white"/>
</svg>
