<svg viewBox="0 0 145 35" fill="none" xmlns="http://www.w3.org/2000/svg">
    <rect x="0.662598" y="0.563477" width="144.01" height="34.3635" rx="16.3635" fill="#131313"/>
    <path d="M45.4097 8.82549H46.7128C46.8475 8.82549 46.9826 8.87021 47.0725 8.91541C47.1624 8.96013 47.2072 9.05006 47.2524 9.13998L48.1511 12.6446C48.1958 12.7792 48.1958 12.8692 48.241 13.0043C48.2858 13.1389 48.2858 13.274 48.331 13.4087C48.3757 13.274 48.3757 13.1389 48.4209 13.0043C48.4656 12.8696 48.5108 12.7345 48.5108 12.6446L49.5894 9.13998C49.6341 9.05006 49.6793 8.96013 49.7692 8.91541C49.8592 8.82549 49.9491 8.82549 50.0837 8.82549H50.5329C50.6675 8.82549 50.7574 8.87021 50.8474 8.91541C50.9373 8.9606 50.982 9.05006 51.0272 9.13998L52.1058 12.6446C52.1505 12.7345 52.1957 12.8692 52.1957 13.0043C52.2404 13.1389 52.2856 13.274 52.2856 13.4087C52.3304 13.274 52.3304 13.1389 52.3756 13.0043C52.4208 12.8696 52.4203 12.7797 52.4655 12.6446L53.3642 9.13998C53.409 9.05006 53.4542 8.96013 53.5441 8.91541C53.634 8.82549 53.7686 8.82549 53.8586 8.82549H55.0718L53.005 15.5207H51.6119L50.354 11.3419C50.354 11.2972 50.3092 11.2072 50.3092 11.1173C50.3092 11.0274 50.2645 10.9375 50.2645 10.8928C50.2645 10.9827 50.2198 11.0726 50.2198 11.1173C50.2198 11.162 50.1751 11.252 50.1751 11.3419L48.9171 15.5207H47.524L45.4097 8.82549ZM62.8884 12.1959C62.8884 12.6903 62.7985 13.1394 62.6187 13.5438C62.4388 13.9482 62.2143 14.3074 61.8998 14.6224C61.5853 14.9369 61.2256 15.1615 60.8212 15.3413C60.372 15.5211 59.9224 15.6111 59.3834 15.6111C58.8443 15.6111 58.3947 15.5211 57.9455 15.3413C57.4964 15.1615 57.1367 14.9369 56.8222 14.6224C56.5077 14.3079 56.2832 13.9482 56.1033 13.5438C55.9235 13.1394 55.8336 12.6903 55.8336 12.1959C55.8336 11.7016 55.9235 11.2524 56.1033 10.848C56.2832 10.4436 56.5077 10.0844 56.8222 9.76944C57.1367 9.45494 57.4964 9.23037 57.9455 9.05053C58.3947 8.87068 58.8443 8.78076 59.3834 8.78076C59.9224 8.78076 60.372 8.87068 60.8212 9.05053C61.2703 9.23037 61.63 9.45494 61.8998 9.76944C62.2143 10.0839 62.4388 10.4436 62.6187 10.848C62.7985 11.252 62.8884 11.7016 62.8884 12.1959ZM61.2708 12.1959C61.2708 11.8814 61.2261 11.5669 61.1361 11.2972C61.0534 11.0545 60.9319 10.8268 60.7764 10.623C60.5966 10.4431 60.4168 10.3085 60.1922 10.2186C59.9676 10.1287 59.6979 10.0839 59.3834 10.0839C59.0689 10.0839 58.7991 10.1287 58.5745 10.2186C58.35 10.3085 58.1254 10.4431 57.9903 10.623C57.8104 10.8028 57.7205 11.0274 57.6306 11.2972C57.5407 11.5669 57.4959 11.8814 57.4959 12.1959C57.4959 12.5104 57.5407 12.8249 57.6306 13.0947C57.7205 13.3644 57.8552 13.589 57.9903 13.7688C58.1701 13.9487 58.35 14.0833 58.5745 14.1733C58.7991 14.2632 59.0689 14.3079 59.3834 14.3079C59.6979 14.3079 59.9676 14.2632 60.1922 14.1733C60.4168 14.0833 60.6413 13.9487 60.7764 13.7688C60.9563 13.589 61.0462 13.3644 61.1361 13.0947C61.228 12.804 61.2735 12.5007 61.2708 12.1959ZM65.6294 13.0495V15.5207H64.057V8.82549H66.2589C66.7532 8.82549 67.1576 8.87021 67.5168 8.96013C67.8765 9.05006 68.1458 9.18471 68.3704 9.36455C68.595 9.5444 68.7301 9.76896 68.8647 9.99353C68.9546 10.2181 68.9994 10.4879 68.9994 10.8024C68.9994 11.0269 68.9546 11.2068 68.9094 11.4313C68.8647 11.6112 68.7748 11.791 68.6397 11.9704C68.505 12.1502 68.3699 12.2849 68.2353 12.4195C68.1006 12.5542 67.8756 12.6441 67.651 12.734C67.7409 12.7788 67.8308 12.8687 67.9655 12.9139C68.1001 12.9591 68.1454 13.0937 68.1901 13.1836L69.6279 15.5202H68.2348C67.965 15.5202 67.7857 15.4303 67.6505 15.2057L66.5272 13.2736C66.4918 13.1933 66.4277 13.1291 66.3474 13.0937C66.3027 13.049 66.1675 13.049 66.0776 13.049C66.0786 13.0495 65.6294 13.0495 65.6294 13.0495ZM65.6294 12.0161H66.2584C66.483 12.0161 66.6628 11.9713 66.7975 11.9261C66.9321 11.8814 67.0672 11.7915 67.1572 11.7016C67.2471 11.6117 67.337 11.477 67.3817 11.3871C67.4264 11.2524 67.4264 11.1173 67.4264 10.9827C67.4264 10.6682 67.3365 10.4436 67.1567 10.3085C66.9768 10.1286 66.6623 10.0387 66.2579 10.0387H65.6289V12.0161H65.6294ZM72.2347 11.5665H72.5045C72.729 11.5665 72.9089 11.4765 72.9988 11.3419L74.5265 9.13998C74.6164 9.00533 74.7064 8.96013 74.7963 8.91541C74.8862 8.87068 75.0209 8.87068 75.2007 8.87068H76.5486L74.5717 11.5665C74.4818 11.6564 74.4371 11.7463 74.3471 11.791C74.2572 11.8358 74.2125 11.9257 74.1226 11.9709C74.2572 12.0156 74.3471 12.0608 74.4371 12.1507C74.527 12.2406 74.6169 12.3306 74.7068 12.4652L76.7289 15.5654H75.1112C75.0665 15.5654 74.9766 15.5207 74.9314 15.5207C74.8867 15.5207 74.8415 15.476 74.7968 15.4308C74.752 15.386 74.752 15.3408 74.7068 15.2961L73.1791 12.9596C73.1344 12.8696 73.0445 12.8249 72.9545 12.7797C72.8646 12.7345 72.7747 12.735 72.5948 12.735H72.2351V15.6106H70.6627V8.82549H72.2351L72.2347 11.5665ZM81.4458 10.2186C81.4011 10.3085 81.3559 10.3532 81.3112 10.3984C81.2664 10.4436 81.1765 10.4431 81.1313 10.4431C81.0414 10.4431 80.9967 10.4431 80.9067 10.3984L80.637 10.2638C80.5471 10.219 80.4124 10.1738 80.2773 10.1291C80.1422 10.0844 80.0075 10.0844 79.8282 10.0844C79.5584 10.0844 79.3338 10.1291 79.154 10.2642C79.0193 10.3989 78.9294 10.5787 78.9294 10.7586C78.9294 10.8932 78.9741 10.9831 79.064 11.0731C79.154 11.163 79.2439 11.2529 79.4237 11.2976C79.5584 11.3424 79.7382 11.4323 79.9181 11.4775C80.0979 11.5222 80.2778 11.6121 80.4571 11.6573C80.637 11.7021 80.8168 11.792 80.9962 11.8819C81.176 11.9718 81.3559 12.1065 81.4905 12.2416C81.6252 12.3762 81.7603 12.5561 81.8502 12.7359C81.9401 12.9158 81.9849 13.1851 81.9849 13.4548C81.9849 13.7693 81.9402 14.0391 81.805 14.3084C81.682 14.5637 81.5314 14.8048 81.3559 15.0273C81.1313 15.2071 80.9067 15.387 80.5918 15.5216C80.2768 15.6563 79.9628 15.7015 79.5584 15.7015C79.3338 15.7015 79.154 15.7015 78.9294 15.6567C78.7143 15.6178 78.5036 15.5576 78.3004 15.4769C78.0759 15.387 77.896 15.297 77.7162 15.2071C77.5363 15.1172 77.4017 14.9826 77.267 14.8474L77.7162 14.1285L77.8508 13.9939C77.8955 13.9492 77.9855 13.9492 78.0307 13.9492C78.1206 13.9492 78.2105 13.9939 78.3004 14.0391C78.3903 14.0838 78.4803 14.1737 78.6149 14.2189C78.7496 14.2636 78.8847 14.3536 79.0193 14.3988C79.154 14.444 79.3338 14.4887 79.5584 14.4887C79.8282 14.4887 80.0527 14.444 80.2326 14.3089C80.3672 14.1742 80.4571 13.9944 80.4571 13.7246C80.4571 13.5899 80.4124 13.4548 80.3225 13.3202C80.2326 13.2303 80.1426 13.1403 79.9628 13.0956C79.8281 13.0509 79.6483 12.961 79.4685 12.9158C79.2886 12.871 79.1088 12.8258 78.9294 12.7359C78.7496 12.6912 78.5697 12.6013 78.3903 12.5113C78.208 12.4177 78.0412 12.2964 77.896 12.1517C77.7614 12.017 77.6262 11.8372 77.5363 11.6126C77.4464 11.388 77.4017 11.1183 77.4017 10.8038C77.4017 10.534 77.4464 10.3094 77.5363 10.0849C77.6262 9.8603 77.8061 9.63573 77.9855 9.45589C78.1892 9.25525 78.4347 9.1019 78.7044 9.00674C78.9741 8.91682 79.3333 8.8269 79.693 8.8269C79.9176 8.8269 80.0974 8.8269 80.2773 8.87162L80.8164 9.00627C80.9962 9.051 81.176 9.14092 81.3107 9.23084C81.4453 9.32076 81.5805 9.41068 81.7151 9.54533L81.4458 10.2186ZM84.9057 8.82549H86.2088C86.3435 8.82549 86.4786 8.87021 86.5685 8.91541C86.6585 8.96013 86.7032 9.05006 86.7484 9.13998L87.6471 12.6446C87.6919 12.7792 87.6919 12.8692 87.7371 13.0043C87.7818 13.1389 87.7818 13.274 87.827 13.4087C87.8717 13.274 87.8717 13.1389 87.9169 13.0043C87.9621 12.8696 88.0068 12.7345 88.0068 12.6446L89.0854 9.13998C89.1301 9.05006 89.1753 8.96013 89.2653 8.91541C89.3552 8.82549 89.4451 8.82549 89.5797 8.82549H90.0289C90.1635 8.82549 90.2535 8.87021 90.3434 8.91541C90.4333 8.9606 90.478 9.05006 90.5232 9.13998L91.6018 12.6446C91.6465 12.7345 91.6917 12.8692 91.6917 13.0043C91.7365 13.1389 91.7817 13.274 91.7817 13.4087C91.8264 13.274 91.8264 13.1389 91.8716 13.0043C91.9168 12.8696 91.9163 12.7797 91.9615 12.6446L92.8603 9.13998C92.905 9.05006 92.9502 8.96013 93.0401 8.91541C93.13 8.82549 93.2647 8.82549 93.3546 8.82549H94.5678L92.501 15.5207H91.108L89.85 11.3419C89.85 11.2972 89.8053 11.2072 89.8053 11.1173C89.8053 11.0274 89.7605 10.9375 89.7605 10.8928C89.7605 10.9827 89.7158 11.0726 89.7158 11.1173C89.7158 11.162 89.6711 11.252 89.6711 11.3419L88.4131 15.5207H87.02L84.9057 8.82549ZM97.442 15.5659H95.8696V8.82595H97.442V15.5659ZM104.003 8.82549V10.0387H102.115V15.5207H100.543V10.0839H98.6553V8.87068H104.002V8.82549H104.003ZM110.967 15.5659H109.395V12.735H106.654V15.5659H105.081V8.82595H106.654V11.6117H109.395V8.82595H110.967V15.5659ZM119.145 12.1959C119.145 12.6903 119.055 13.1394 118.875 13.5438C118.695 13.9482 118.471 14.3074 118.156 14.6224C117.842 14.9369 117.482 15.1615 117.078 15.3413C116.628 15.5211 116.179 15.6111 115.64 15.6111C115.101 15.6111 114.651 15.5211 114.202 15.3413C113.753 15.1615 113.393 14.9369 113.079 14.6224C112.764 14.3079 112.54 13.9482 112.36 13.5438C112.18 13.1394 112.09 12.6903 112.09 12.1959C112.09 11.7016 112.18 11.2524 112.36 10.848C112.54 10.4436 112.764 10.0844 113.079 9.76944C113.393 9.45494 113.753 9.23037 114.202 9.05053C114.651 8.87068 115.101 8.78076 115.64 8.78076C116.179 8.78076 116.628 8.87068 117.078 9.05053C117.527 9.23037 117.886 9.45494 118.156 9.76944C118.471 10.0839 118.695 10.4436 118.875 10.848C119.055 11.252 119.145 11.7016 119.145 12.1959ZM117.572 12.1959C117.572 11.8814 117.528 11.5669 117.438 11.2972C117.355 11.0545 117.233 10.8268 117.078 10.623C116.898 10.4431 116.718 10.3085 116.494 10.2186C116.269 10.1287 115.999 10.0839 115.685 10.0839C115.37 10.0839 115.101 10.1287 114.876 10.2186C114.652 10.3085 114.427 10.4431 114.292 10.623C114.112 10.8028 114.022 11.0274 113.932 11.2972C113.842 11.5669 113.798 11.8814 113.798 12.1959C113.798 12.5104 113.842 12.8249 113.932 13.0947C114.022 13.3644 114.157 13.589 114.292 13.7688C114.472 13.9487 114.652 14.0833 114.876 14.1733C115.101 14.2632 115.37 14.3079 115.685 14.3079C115.999 14.3079 116.269 14.2632 116.494 14.1733C116.718 14.0833 116.943 13.9487 117.078 13.7688C117.258 13.589 117.348 13.3644 117.438 13.0947C117.527 12.8249 117.572 12.5104 117.572 12.1959ZM123.144 14.3074C123.369 14.3074 123.549 14.2627 123.683 14.2175C123.863 14.1276 123.998 14.0377 124.088 13.903C124.222 13.7684 124.268 13.6333 124.357 13.4539C124.402 13.274 124.447 13.0495 124.447 12.8249V8.87068H126.02V12.8249C126.02 13.2293 125.975 13.6337 125.84 13.9482C125.716 14.2882 125.516 14.5955 125.256 14.847C125.004 15.1071 124.697 15.3068 124.357 15.4312C123.969 15.5787 123.558 15.6548 123.144 15.6558C122.729 15.6548 122.318 15.5787 121.931 15.4312C121.571 15.2966 121.256 15.1167 121.032 14.847C120.762 14.5772 120.583 14.3079 120.448 13.9482C120.312 13.5885 120.268 13.2293 120.268 12.8249V8.87068H121.84V12.8249C121.84 13.0495 121.885 13.274 121.93 13.4539C121.975 13.6337 122.065 13.8136 122.2 13.9482C122.334 14.0829 122.47 14.1728 122.604 14.2627C122.785 14.3074 122.964 14.3074 123.144 14.3074ZM132.4 8.82549V10.0387H130.513V15.5207H128.94V10.0839H127.053V8.87068H132.4V8.82549H132.4ZM48.7796 23.9211C48.7796 24.2808 48.7349 24.64 48.645 24.9545C48.555 25.269 48.4204 25.5387 48.2406 25.7633C48.0607 25.9879 47.8361 26.1677 47.5217 26.2576C47.2519 26.3923 46.8927 26.4375 46.533 26.4375C46.3531 26.4375 46.1738 26.4375 45.9939 26.3928C45.8141 26.3928 45.6342 26.348 45.4549 26.3028L45.5448 25.4041C45.5448 25.3142 45.5895 25.2695 45.6347 25.2243C45.6962 25.1681 45.776 25.1361 45.8593 25.1343C45.904 25.1343 45.9939 25.1343 46.0391 25.1791C46.129 25.1791 46.219 25.2238 46.3089 25.2238C46.4435 25.2238 46.5786 25.2238 46.7133 25.1791C46.8032 25.1343 46.9379 25.0891 46.9831 24.9545C47.0278 24.8198 47.1177 24.7299 47.1629 24.5948C47.2076 24.4602 47.2076 24.2351 47.2076 24.0105V19.6971H48.7801V23.9211H48.7796ZM56.3731 26.3476H55.1599C55.0252 26.3476 54.9353 26.3028 54.8454 26.2576C54.7554 26.2129 54.7107 26.123 54.6655 26.0331L54.2611 24.865H51.7L51.2956 26.0331C51.2508 26.123 51.2056 26.2129 51.1157 26.2576C51.0258 26.3476 50.9359 26.3476 50.8012 26.3476H49.588L52.1943 19.6524H53.7668L56.3731 26.3476ZM52.0597 23.7864H53.9019L53.2729 21.9442L53.1382 21.5398C53.0985 21.3684 53.0381 21.2024 52.9584 21.0455L52.8238 21.5845C52.779 21.7644 52.7338 21.899 52.6891 21.9889L52.0597 23.7864ZM55.8788 19.6077H57.1367C57.2714 19.6077 57.3613 19.6524 57.4512 19.6976C57.5411 19.7423 57.5859 19.8322 57.6311 19.9221L58.9342 23.5167C58.9789 23.6513 59.0689 23.8312 59.1141 24.011C59.1588 24.1909 59.2487 24.3707 59.2939 24.5953C59.3386 24.3707 59.3838 24.1909 59.4286 24.011C59.4733 23.8312 59.5632 23.6513 59.6084 23.5167L60.9116 19.9221C60.9563 19.8322 61.0015 19.7423 61.0914 19.6976C61.1813 19.6077 61.2713 19.6077 61.4059 19.6077H62.6639L59.9681 26.3028H58.575L55.8788 19.6077ZM69.0446 26.3476H67.8313C67.6967 26.3476 67.6068 26.3028 67.5168 26.2576C67.4269 26.2129 67.3822 26.123 67.337 26.0331L66.9326 24.865H64.3715L63.967 26.0331C63.9223 26.123 63.8771 26.2129 63.7872 26.2576C63.6973 26.3476 63.6073 26.3476 63.4727 26.3476H62.2595L64.8658 19.6524H66.4382L69.0446 26.3476ZM64.7307 23.7864H66.5729L65.9439 21.9442L65.8093 21.5398C65.7695 21.3684 65.7091 21.2024 65.6294 21.0455L65.4948 21.5845C65.45 21.7639 65.4048 21.899 65.3601 21.9889L64.7307 23.7864ZM73.7624 21.0003C73.7177 21.0902 73.6725 21.1349 73.6278 21.1801C73.583 21.2253 73.4931 21.2248 73.4479 21.2248C73.358 21.2248 73.3133 21.2248 73.2233 21.1801L72.9536 21.0455C72.8637 21.0007 72.729 20.9555 72.5939 20.9108C72.4588 20.8661 72.3241 20.8661 72.1448 20.8661C71.875 20.8661 71.6504 20.9108 71.4706 21.0459C71.3359 21.1806 71.246 21.3604 71.246 21.5403C71.246 21.6749 71.2907 21.7648 71.3807 21.8548C71.4706 21.9447 71.5605 22.0346 71.7403 22.0793C71.875 22.1241 72.0548 22.214 72.2347 22.2592C72.4145 22.3039 72.5944 22.3938 72.7737 22.439C72.9531 22.4842 73.1334 22.5737 73.3128 22.6636C73.4926 22.7535 73.6725 22.8882 73.8071 23.0233C73.9418 23.1579 74.0769 23.3378 74.1664 23.5176C74.2563 23.6975 74.301 23.9668 74.301 24.2365C74.301 24.551 74.2563 24.8208 74.1212 25.0901C73.986 25.3594 73.8514 25.5844 73.672 25.809C73.4474 25.9888 73.2229 26.1687 72.9079 26.3033C72.5934 26.438 72.2789 26.4832 71.8745 26.4832C71.65 26.4832 71.4701 26.4832 71.2455 26.4384C71.0304 26.3995 70.8197 26.3393 70.6166 26.2586C70.392 26.1687 70.2121 26.0787 70.0323 25.9888C69.8525 25.8989 69.7178 25.7643 69.5832 25.6291L70.0323 24.9102L70.167 24.7756C70.2117 24.7309 70.3016 24.7309 70.3468 24.7309C70.4367 24.7309 70.5266 24.7756 70.6166 24.8208C70.7065 24.8655 70.7964 24.9554 70.931 25.0006C71.0657 25.0458 71.2008 25.1353 71.3355 25.1805C71.4701 25.2257 71.65 25.2704 71.8745 25.2704C72.1443 25.2704 72.3689 25.2257 72.5487 25.0906C72.6834 24.9559 72.7733 24.7761 72.7733 24.5063C72.7733 24.3716 72.7286 24.2365 72.6386 24.1019C72.5487 24.012 72.4588 23.922 72.2789 23.8773C72.1443 23.8326 71.9644 23.7427 71.7846 23.6975C71.6047 23.6527 71.4249 23.6075 71.2455 23.5176C71.0657 23.4729 70.8859 23.383 70.7065 23.293C70.5266 23.2031 70.3468 23.0685 70.2121 22.9334C70.0775 22.7982 69.9424 22.6189 69.8525 22.3943C69.7625 22.1697 69.7178 21.9 69.7178 21.5855C69.7178 21.3157 69.7625 21.0911 69.8525 20.8666C69.9424 20.642 70.1222 20.4174 70.3016 20.2376C70.5054 20.0369 70.7508 19.8836 71.0205 19.7884C71.2903 19.6985 71.6495 19.6086 72.0092 19.6086C72.2337 19.6086 72.4136 19.6086 72.5934 19.6533L73.1325 19.788C73.3085 19.8351 73.4755 19.911 73.6268 20.0125C73.7615 20.1025 73.8966 20.1924 74.0312 20.327L73.7624 21.0003ZM80.008 24.5953H80.0979C80.1426 24.5953 80.1878 24.64 80.1878 24.6852L80.8168 25.3142C80.5471 25.6739 80.1878 25.9432 79.7834 26.123C79.379 26.3028 78.8847 26.3928 78.3456 26.3928C77.8513 26.3928 77.357 26.3028 76.9977 26.123C76.6385 25.9432 76.2341 25.7186 75.9643 25.4041C75.6946 25.0896 75.47 24.7299 75.3354 24.3255C75.2007 23.9211 75.1108 23.472 75.1108 22.9776C75.1108 22.4833 75.2007 22.0341 75.3805 21.5845C75.5604 21.1354 75.785 20.8209 76.0994 20.5059C76.4139 20.191 76.7736 19.9669 77.2228 19.787C77.6719 19.6072 78.1215 19.5173 78.6606 19.5173C78.9303 19.5173 79.1549 19.5173 79.3795 19.562C79.6041 19.6067 79.8286 19.6519 80.0085 19.7418L80.5475 20.0116C80.7274 20.1015 80.862 20.2362 80.9967 20.3713L80.4576 21.0902L80.323 21.2248C80.2782 21.2696 80.233 21.2696 80.1431 21.2696C80.0984 21.2696 80.0532 21.2696 80.0085 21.2248C79.9637 21.1801 79.9185 21.1801 79.8738 21.1349C79.8291 21.0897 79.7392 21.045 79.694 21.0003C79.6493 20.9555 79.5593 20.9104 79.4694 20.8656C79.3795 20.8209 79.2896 20.8209 79.1549 20.7757C79.0203 20.731 78.8852 20.731 78.7505 20.731C78.4807 20.731 78.2114 20.7757 77.9869 20.8656C77.7623 20.9556 77.5377 21.0902 77.4026 21.3148C77.2167 21.5046 77.0782 21.7356 76.9982 21.9889C76.9083 22.2587 76.8636 22.528 76.8636 22.8877C76.8636 23.2474 76.9083 23.5167 76.9982 23.7864C77.0881 24.0562 77.2228 24.2808 77.4026 24.4606C77.5825 24.6405 77.7618 24.7751 77.9869 24.865C78.2114 24.955 78.436 24.9997 78.6611 24.9997H79.0655C79.2001 24.9997 79.29 24.955 79.38 24.9098L79.6497 24.7751C79.7396 24.7304 79.8296 24.6405 79.9195 24.5953C79.9642 24.5505 80.0094 24.5505 80.0541 24.5053C79.9181 24.5953 79.9633 24.5953 80.008 24.5953ZM83.5578 23.8312V26.3024H81.9853V19.6072H84.1873C84.6816 19.6072 85.086 19.6519 85.4452 19.7418C85.8049 19.8318 86.0742 19.9664 86.2988 20.1463C86.5233 20.3261 86.6585 20.5507 86.7931 20.7752C86.883 20.9998 86.9278 21.2696 86.9278 21.5841C86.9278 21.8086 86.883 21.9885 86.8378 22.213C86.7931 22.3929 86.7032 22.5727 86.5681 22.7521C86.4334 22.9319 86.2983 23.0666 86.1637 23.2012C86.029 23.3359 85.804 23.4258 85.5794 23.5157C85.6693 23.5605 85.7592 23.6504 85.8939 23.6956C86.0285 23.7403 86.0737 23.8754 86.1185 23.9653L87.5563 26.3019H86.1632C85.8934 26.3019 85.714 26.212 85.5789 25.9874L84.4556 24.0553C84.4202 23.975 84.3561 23.9108 84.2758 23.8754C84.231 23.8307 84.0959 23.8307 84.006 23.8307H83.5578V23.8312ZM83.5578 22.7978H84.1868C84.4114 22.7978 84.5912 22.753 84.7258 22.7078C84.8605 22.6631 84.9956 22.5732 85.0851 22.4833C85.175 22.3934 85.2649 22.2587 85.3096 22.1688C85.3544 22.0341 85.3544 21.899 85.3544 21.7644C85.3544 21.4499 85.2644 21.2253 85.0846 21.0902C84.9047 20.9103 84.5903 20.8204 84.1858 20.8204H83.5569V22.7978H83.5578ZM90.2977 26.3476H88.7253V19.6077H90.2977V26.3476ZM93.533 24.1009V26.3476H91.9606V19.6077H94.3419C94.8362 19.6077 95.2406 19.6524 95.5551 19.7875C95.9148 19.9221 96.1841 20.0573 96.4086 20.2366C96.6332 20.4165 96.7683 20.6858 96.903 20.9108C96.9929 21.1806 97.0376 21.4499 97.0376 21.7644C97.0376 22.0789 96.9929 22.3934 96.8578 22.7078C96.7629 22.9887 96.5917 23.2376 96.3634 23.4268C96.1389 23.6066 95.8691 23.7864 95.5099 23.8759C95.1502 24.0105 94.791 24.0557 94.2967 24.0557H93.533V24.1009ZM93.533 22.9324H94.3419C94.7463 22.9324 95.0608 22.8425 95.1954 22.6627C95.3753 22.4828 95.4652 22.2135 95.4652 21.8538C95.4652 21.7192 95.4204 21.5393 95.3752 21.4494C95.3301 21.3595 95.2406 21.2248 95.1507 21.1349C95.0487 21.0345 94.9259 20.9579 94.791 20.9104C94.6319 20.8549 94.4651 20.8245 94.2967 20.8204H93.4878V22.9324H93.533ZM103.194 19.6077V20.8209H101.306V26.3028H99.7339V20.8661H97.8465V19.6529H103.193V19.6077H103.194Z" fill="white"/>
    <path d="M36.2249 25.4344L13.8983 8.87559L12.937 10.1425L35.2635 26.7451L36.2249 25.4344Z" fill="white"/>
    <path d="M18.4401 12.2441V14.2348L20.7121 15.9243V13.9292L18.4401 12.2441Z" fill="white"/>
    <path d="M20.7121 12.09L18.4401 10.4049V9.00735H20.7121V12.09Z" fill="white"/>
    <path d="M29.0062 18.2414L24.2264 14.6964C24.1305 14.3169 24.0769 13.8952 24.0769 13.4197C24.0769 12.8081 24.2078 12.2398 24.4262 11.6721C24.6447 11.1043 24.994 10.6236 25.4309 10.1867C25.8678 9.74979 26.4356 9.40046 27.0914 9.13823C27.7468 8.87599 28.4897 8.74512 29.3197 8.74512C30.2811 8.74512 31.1549 8.876 31.8973 9.18201C32.6835 9.48803 33.3827 9.92493 33.9509 10.4927L33.5135 11.6283C33.4975 11.6522 33.483 11.6748 33.4693 11.6958C33.4086 11.7898 33.3666 11.8547 33.2951 11.8905L33.2942 11.891C33.2069 11.9346 33.12 11.9781 32.9891 11.9781C32.8582 11.9781 32.6831 11.8905 32.5084 11.7596C32.395 11.6747 32.2632 11.5895 32.1129 11.4924C32.0317 11.44 31.9451 11.384 31.853 11.3227C31.5908 11.1481 31.2415 11.0167 30.8484 10.8858C30.4553 10.7549 30.0184 10.6674 29.4501 10.6674C28.9257 10.6674 28.4887 10.7549 28.0956 10.8858C27.7025 11.0167 27.3527 11.1918 27.091 11.4536C26.8264 11.68 26.6172 11.9639 26.4794 12.2836C26.3358 12.6145 26.2615 12.9713 26.2609 13.3321C26.2609 13.8128 26.3918 14.2059 26.6103 14.5119C26.8287 14.8179 27.1347 15.0797 27.5279 15.2981C27.921 15.5166 28.3579 15.6912 28.8385 15.8659C29.0752 15.9519 29.3223 16.0379 29.5696 16.1239C29.8247 16.2127 30.0799 16.3015 30.3239 16.3904C30.8484 16.565 31.3286 16.7397 31.8093 16.9581C32.29 17.1766 32.7269 17.4388 33.12 17.7882C33.5131 18.1375 33.8191 18.5311 34.0375 19.0118C34.256 19.4924 34.3869 20.104 34.3869 20.8031C34.3869 21.2593 34.3375 21.699 34.2387 22.1222L32.1508 20.5736C32.0934 20.2979 31.9907 20.0612 31.8535 19.8418C31.6351 19.4924 31.3291 19.2302 30.9359 19.0118C30.5428 18.7933 30.1059 18.6187 29.6252 18.444C29.4243 18.371 29.2159 18.3055 29.0062 18.2414Z" fill="white"/>
    <path d="M32.0123 22.3101C32.0034 22.3319 31.9941 22.3538 31.9844 22.3756C31.8064 22.7327 31.5701 23.0576 31.2853 23.337C31.1987 23.4252 31.1062 23.5067 31.0084 23.5809L32.6723 24.8182C32.7517 24.7491 32.8281 24.6777 32.9015 24.6043C33.2151 24.2907 33.4729 23.94 33.6869 23.5521L32.0123 22.3101Z" fill="white"/>
    <path d="M31.538 25.5585L29.618 24.1345C29.3449 24.1827 29.048 24.2108 28.751 24.2108C28.0952 24.2108 27.5274 24.1232 27.0905 23.9485C26.6098 23.7739 26.2167 23.5992 25.9107 23.3807C25.6353 23.2233 25.395 23.0303 25.1904 22.8658C25.168 22.8479 25.146 22.8302 25.1244 22.813C24.906 22.6383 24.7313 22.5507 24.5567 22.5507C24.4258 22.5507 24.3388 22.5942 24.2516 22.6378L24.2506 22.6383C24.1631 22.6821 24.076 22.7692 24.0322 22.8568L23.3768 23.949C24.0322 24.6481 24.7751 25.1726 25.6927 25.5657C26.6098 25.9588 27.615 26.1773 28.7072 26.1773C29.5278 26.1753 30.3414 26.0274 31.1101 25.7404C31.2568 25.6854 31.3995 25.6246 31.538 25.5585Z" fill="white"/>
    <path d="M20.7121 17.5294L18.4401 15.8442V20.1487C18.4401 20.8479 18.3963 21.4594 18.2216 21.9839C18.047 22.5079 17.8723 22.9015 17.5663 23.2508C17.2607 23.6006 16.9109 23.8191 16.5178 23.9937C16.0662 24.1402 15.5943 24.2139 15.1195 24.2122C14.726 24.2122 14.3766 24.2122 14.1582 24.1246C13.9398 24.0808 13.7213 24.037 13.5904 24.037C13.4157 24.037 13.2849 24.0803 13.1973 24.1679C13.1102 24.2117 13.0664 24.3431 13.0664 24.4739C13.0445 24.5832 13.0336 24.6924 13.0226 24.8016C13.0117 24.9108 13.0007 25.0201 12.9788 25.1293C12.9788 25.2664 12.9669 25.3915 12.9555 25.5109C12.945 25.6199 12.9351 25.7242 12.9351 25.8284C13.7651 26.0469 14.5518 26.1778 15.338 26.1778C16.1161 26.1763 16.8869 26.028 17.6101 25.7409C18.2659 25.4786 18.7899 25.0855 19.2706 24.561C19.7512 24.037 20.1006 23.3817 20.319 22.6388C20.5375 21.8959 20.6684 21.0658 20.6684 20.1045L20.7121 20.105V17.5294Z" fill="white"/>
</svg>
