<svg width="25" height="25" viewBox="0 0 25 25" fill="none" xmlns="http://www.w3.org/2000/svg">
<g clip-path="url(#clip0)">
<path d="M12.5 0.625977C5.87 0.625977 0.5 5.90598 0.5 12.418C0.5 17.629 3.938 22.048 8.705 23.606C9.305 23.717 9.525 23.352 9.525 23.039C9.525 22.759 9.515 22.017 9.51 21.034C6.172 21.745 5.468 19.452 5.468 19.452C4.922 18.091 4.133 17.727 4.133 17.727C3.046 16.996 4.217 17.011 4.217 17.011C5.422 17.093 6.055 18.226 6.055 18.226C7.125 20.029 8.864 19.508 9.55 19.207C9.658 18.444 9.967 17.925 10.31 17.63C7.645 17.335 4.844 16.321 4.844 11.803C4.844 10.516 5.309 9.46398 6.079 8.63898C5.944 8.34098 5.539 7.14198 6.184 5.51798C6.184 5.51798 7.189 5.20198 9.484 6.72698C10.444 6.46498 11.464 6.33498 12.484 6.32898C13.504 6.33498 14.524 6.46498 15.484 6.72698C17.764 5.20198 18.769 5.51798 18.769 5.51798C19.414 7.14198 19.009 8.34098 18.889 8.63898C19.654 9.46398 20.119 10.516 20.119 11.803C20.119 16.333 17.314 17.33 14.644 17.62C15.064 17.974 15.454 18.697 15.454 19.802C15.454 21.38 15.439 22.648 15.439 23.031C15.439 23.34 15.649 23.709 16.264 23.591C21.065 22.043 24.5 17.621 24.5 12.418C24.5 5.90598 19.127 0.625977 12.5 0.625977Z" fill="white"/>
</g>
<defs>
<clipPath id="clip0">
<rect width="24" height="24" fill="white" transform="translate(0.5 0.125977)"/>
</clipPath>
</defs>
</svg>
