<svg version="1.1" id="Слой_1" xmlns="http://www.w3.org/2000/svg" xmlns:xlink="http://www.w3.org/1999/xlink" x="0px" y="0px"
     viewBox="0 0 62.132 62.132" style="enable-background:new 0 0 62.132 62.132;" xml:space="preserve">
<g>
	<path d="M6.973,22.59c0.363-0.881,0.732-1.778,1.079-2.621c-0.476-1.813-0.942-3.565-1.395-5.321
		c-0.425-1.648-0.024-3.075,1.181-4.277c0.85-0.848,1.703-1.694,2.547-2.548c1.202-1.218,2.641-1.592,4.28-1.181
		c1.759,0.44,3.509,0.916,5.343,1.397c0.824-0.34,1.719-0.71,2.602-1.075c0.883-1.509,1.779-2.974,2.609-4.475
		c0.964-1.742,2.42-2.537,4.389-2.488c1.07,0.027,2.142,0.004,3.213,0.006c1.773,0.004,3.105,0.756,3.993,2.31
		c0.868,1.519,1.768,3.02,2.696,4.601c0.813,0.454,1.78,0.735,2.642,1.136c1.807-0.474,3.56-0.937,5.313-1.394
		c1.648-0.43,3.075-0.04,4.279,1.165c0.849,0.85,1.692,1.704,2.549,2.546c1.25,1.229,1.61,2.691,1.175,4.368
		c-0.447,1.724-0.899,3.446-1.374,5.264c0.332,0.811,0.7,1.707,1.066,2.601c1.5,0.879,2.963,1.779,4.465,2.607
		c1.782,0.983,2.569,2.473,2.504,4.478c-0.035,1.07-0.008,2.142-0.008,3.213c0.001,1.747-0.78,3.039-2.276,3.916
		c-1.537,0.901-3.075,1.801-4.674,2.737c-0.353,0.842-0.728,1.737-1.097,2.619c0.474,1.803,0.959,3.582,1.408,5.37
		c0.403,1.606,0.032,3.012-1.164,4.186c-0.857,0.841-1.719,1.678-2.545,2.55c-1.216,1.285-2.688,1.634-4.356,1.222
		c-1.761-0.435-3.508-0.922-5.328-1.405c-0.805,0.334-1.671,0.693-2.53,1.049c-0.895,1.526-1.795,3.024-2.659,4.544
		c-0.959,1.687-2.385,2.491-4.324,2.437c-1.07-0.03-2.142-0.009-3.213-0.005c-1.813,0.006-3.17-0.757-4.074-2.346
		c-0.865-1.521-1.763-3.022-2.695-4.615c-0.851-0.353-1.775-0.736-2.62-1.086c-1.838,0.482-3.59,0.949-5.346,1.4
		c-1.609,0.414-3.015,0.039-4.199-1.132C9.552,53.479,8.686,52.6,7.81,51.731c-1.216-1.205-1.58-2.645-1.166-4.284
		c0.444-1.757,0.916-3.508,1.39-5.318c-0.336-0.819-0.693-1.686-1.055-2.567c-1.505-0.886-2.998-1.796-4.521-2.651
		c-1.698-0.953-2.497-2.378-2.457-4.311c0.022-1.071,0.008-2.142,0.003-3.213c-0.009-1.81,0.737-3.176,2.328-4.083
		C3.853,24.437,5.354,23.538,6.973,22.59z M42.039,49.81c2.187,0.832,4.423,1.349,6.55,1.883c1.055-1.052,2.039-2.033,3.065-3.056
		c-0.527-2.176-1.107-4.395-1.844-6.562c0.766-1.846,1.523-3.669,2.266-5.461c2.116-1.04,4.094-2.203,6.029-3.414
		c0-1.447,0-2.835,0-4.236c-1.969-1.237-3.96-2.383-6.035-3.409c-0.742-1.805-1.481-3.601-2.241-5.449
		c0.717-2.173,1.347-4.406,1.822-6.521c-1.066-1.095-2.035-2.09-3.032-3.113c-2.166,0.538-4.364,1.085-6.552,1.854
		c-1.819-0.755-3.668-1.522-5.471-2.269c-1.06-2.126-2.211-4.11-3.409-6.017c-1.464,0-2.849,0-4.237,0
		c-1.229,1.993-2.393,3.972-3.395,6.022c-1.84,0.756-3.636,1.494-5.458,2.244c-2.17-0.725-4.38-1.338-6.473-1.815
		c-1.077,1.078-2.079,2.08-3.134,3.135c0.514,1.923,0.98,3.978,1.683,5.967c0.1,0.283,0.139,0.54,0.014,0.836
		c-0.72,1.699-1.423,3.405-2.128,5.1c-2.101,1.063-4.124,2.205-6.044,3.448c0,1.445,0,2.805,0,4.201
		c1.949,1.23,3.93,2.39,6.043,3.414c0.744,1.802,1.497,3.626,2.252,5.454c-0.747,2.186-1.351,4.397-1.835,6.54
		c1.042,1.054,2.018,2.042,3.038,3.074c2.143-0.535,4.341-1.079,6.549-1.853c1.801,0.746,3.65,1.511,5.468,2.264
		c1.051,2.111,2.21,4.094,3.421,6.033c1.435,0,2.823,0,4.241,0c1.228-1.966,2.392-3.945,3.401-6.031
		C38.389,51.326,40.183,50.581,42.039,49.81z" fill="white"/>
    <path d="M18.466,31.017c0.049-6.989,5.716-12.591,12.695-12.55c6.951,0.041,12.565,5.764,12.501,12.743
		c-0.063,6.907-5.758,12.493-12.694,12.453C24.058,43.623,18.418,37.918,18.466,31.017z M30.996,39.668
		c4.786,0.018,8.642-3.766,8.671-8.51c0.029-4.788-3.745-8.654-8.486-8.693c-4.832-0.039-8.71,3.767-8.718,8.558
		C22.455,35.807,26.248,39.649,30.996,39.668z" fill="white"/>
</g>
</svg>
