<svg width="55" height="55" viewBox="0 0 55 55" fill="none" xmlns="http://www.w3.org/2000/svg">
<circle cx="27.5" cy="27.5" r="27.5" fill="url(#paint0_linear_7282_127998)"/>
<path d="M42.5498 17.132C41.9707 16.6755 41.2803 16.0518 40.0218 15.8959C38.8414 15.74 37.6387 16.5307 36.8257 17.0541C36.0128 17.5775 34.4759 19.1143 33.8412 19.582C33.2064 20.0498 31.5805 20.4841 28.9634 22.0543C26.3464 23.6245 16.0787 30.2173 16.0787 30.2173L18.7514 30.2507L6.83548 36.3868H8.02707L6.31207 37.6898C6.31207 37.6898 7.82662 38.0907 9.09616 37.2889V37.6564C9.09616 37.6564 23.2839 32.0659 26.0234 33.5136L24.353 34.0036C24.4978 34.0036 27.1928 34.1818 27.1928 34.1818C27.1928 34.1818 27.2818 35.8634 28.9078 36.9436C30.5337 38.0127 30.5671 38.603 30.5671 38.603C30.5671 38.603 29.7207 38.9482 29.7207 39.3825C29.7207 39.3825 30.968 39.0039 32.1262 39.0373C33.2843 39.0707 34.2978 39.3825 34.2978 39.3825C34.2978 39.3825 34.2087 38.9148 33.0839 38.603C31.948 38.28 30.8455 37.0661 30.2998 36.398C29.7541 35.7298 29.3755 34.5382 29.8432 33.3466C30.233 32.3332 31.5916 31.7764 34.398 30.3286C37.7055 28.6136 38.4628 27.3441 38.9305 26.353C39.3982 25.3618 40.0887 23.3907 40.4784 22.4664C40.9684 21.2748 41.5698 20.64 42.0709 20.2614C42.5609 19.8827 44.7993 19.0475 44.7993 19.0475C44.7993 19.0475 43.0955 17.5664 42.5498 17.132Z" fill="white"/>
<defs>
<linearGradient id="paint0_linear_7282_127998" x1="27.5" y1="1.60933e-06" x2="54.5" y2="27" gradientUnits="userSpaceOnUse">
<stop stop-color="#E60053"/>
<stop offset="1" stop-color="#E6007A"/>
</linearGradient>
</defs>
</svg>
