<svg width="25" height="25" viewBox="0 0 25 25" fill="none" xmlns="http://www.w3.org/2000/svg">
<g clip-path="url(#clip0)">
<path d="M24.4943 24.1252V24.1242H24.5003V15.3222C24.5003 11.0162 23.5733 7.69922 18.5393 7.69922C16.1193 7.69922 14.4953 9.02722 13.8323 10.2862H13.7623V8.10122H8.98926V24.1242H13.9593V16.1902C13.9593 14.1012 14.3553 12.0812 16.9423 12.0812C19.4913 12.0812 19.5293 14.4652 19.5293 16.3242V24.1252H24.4943Z" fill="white"/>
<path d="M0.895996 8.10352H5.872V24.1265H0.895996V8.10352Z" fill="white"/>
<path d="M3.382 0.125977C1.791 0.125977 0.5 1.41698 0.5 3.00798C0.5 4.59898 1.791 5.91698 3.382 5.91698C4.973 5.91698 6.264 4.59898 6.264 3.00798C6.263 1.41698 4.972 0.125977 3.382 0.125977V0.125977Z" fill="white"/>
</g>
<defs>
<clipPath id="clip0">
<rect width="24" height="24" fill="white" transform="translate(0.5 0.125977)"/>
</clipPath>
</defs>
</svg>
