<svg width="154" height="36" viewBox="0 0 154 36" fill="none" xmlns="http://www.w3.org/2000/svg">
    <g clip-path="url(#clip0)">
        <rect width="154" height="35" transform="translate(0 0.5)" fill=""/>
        <path d="M10.2619 35.5L18.671 30.2643V19.573C18.671 19.3643 18.634 19.1641 18.5713 18.9725L10.0767 24.2607C10.1964 24.5446 10.2619 24.8541 10.2619 25.1735V35.5Z" fill="#FFF200"/>
        <path d="M8.40907 0.5L0 5.73566V16.427C0 16.6357 0.0370569 16.8359 0.0997687 17.0275L8.59436 11.7393C8.47464 11.4554 8.40907 11.1459 8.40907 10.8265V0.5Z" fill="#21DFF3"/>
        <path d="M8.87812 12.2307L0.356445 17.5373C0.500397 17.7389 0.685682 17.9149 0.905173 18.0526L9.15747 23.1903C9.40831 23.3465 9.6221 23.5438 9.79314 23.771L18.3162 18.4657C18.1723 18.2642 17.987 18.0881 17.7675 17.9504L9.51521 12.8127C9.26294 12.6551 9.05057 12.4578 8.87812 12.2307Z" fill="#FF0078"/>
        <path d="M8.40929 35.5V26.0125L0.816895 30.7739L8.40929 35.5Z" fill="#A42EFF"/>
        <path d="M40.412 17.5741C40.5674 17.4336 40.7042 17.2788 40.8254 17.1085C40.975 16.8955 41.0776 16.6599 41.1418 16.4072C41.2116 16.136 41.2458 15.8535 41.2458 15.5696C41.2458 15.1096 41.1703 14.6866 41.022 14.3118C40.871 13.9341 40.6486 13.5963 40.3621 13.3109C39.9973 12.9475 39.5597 12.6721 39.0637 12.4904C38.5777 12.3129 38.0603 12.222 37.5259 12.222H31.6609C31.4528 12.222 31.2832 12.391 31.2832 12.5983V23.9029C31.2832 24.1102 31.4528 24.2791 31.6609 24.2791H37.7525C38.3397 24.2791 38.8913 24.1783 39.3944 23.9796C39.8947 23.7822 40.345 23.4997 40.7299 23.1434C41.0933 22.8084 41.3812 22.4052 41.585 21.9452C41.7874 21.4852 41.89 20.9784 41.89 20.4404C41.89 19.6496 41.6762 18.9498 41.2487 18.3521C41.0121 18.0412 40.7313 17.78 40.412 17.5741ZM37.7767 21.7976H34.0411V19.086H37.8722C38.0717 19.086 38.2599 19.1272 38.4466 19.2138C38.6376 19.3018 38.7958 19.414 38.9184 19.546C39.1008 19.7561 39.1891 20.0429 39.1891 20.4233C39.1891 20.6178 39.1578 20.8024 39.0979 20.9699C39.0395 21.1289 38.9625 21.2553 38.8713 21.3475C38.7259 21.4824 38.5549 21.5931 38.3611 21.6769C38.1701 21.7578 37.9805 21.7976 37.7767 21.7976ZM38.2955 16.3305C38.2242 16.4114 38.1373 16.4767 38.0318 16.5321C37.9392 16.5804 37.8366 16.6031 37.7183 16.6031H34.0411V14.705H37.4175C37.781 14.705 38.0589 14.7973 38.2684 14.9889C38.4423 15.1451 38.5264 15.3651 38.5264 15.6633C38.525 15.9302 38.448 16.1502 38.2955 16.3305Z" fill="white"/>
        <path d="M46.9129 12.2234H44.9104C44.7009 12.2234 44.5327 12.3923 44.5327 12.5996V23.9042C44.5327 24.1115 44.7023 24.2805 44.9104 24.2805H53.4734C53.6829 24.2805 53.8511 24.1115 53.8511 23.9042V22.1183C53.8511 21.9111 53.6815 21.7421 53.4734 21.7421H47.2906V12.5996C47.2906 12.3909 47.121 12.2234 46.9129 12.2234Z" fill="white"/>
        <path d="M65.5835 13.6644C65.0205 13.1036 64.3449 12.6635 63.5739 12.3555C62.8071 12.0503 61.9476 11.8955 61.0212 11.8955C60.0649 11.8955 59.1769 12.0673 58.3845 12.4066C57.5892 12.7459 56.9008 13.2229 56.3392 13.822C55.8033 14.3813 55.3829 15.0372 55.0893 15.7697C54.7956 16.5023 54.646 17.2973 54.646 18.1334C54.646 18.9327 54.7985 19.7092 55.0992 20.4432C55.4 21.1743 55.809 21.8203 56.3178 22.3654C56.8794 22.9645 57.5692 23.4529 58.3659 23.8177C59.1684 24.184 60.062 24.37 61.0212 24.37C61.9747 24.37 62.8513 24.2053 63.628 23.8788C64.4019 23.5522 65.0861 23.0894 65.6619 22.5045C66.212 21.9438 66.6396 21.2836 66.9347 20.5426C67.2283 19.8044 67.3779 18.9937 67.3779 18.1334C67.3779 17.2717 67.2226 16.4512 66.9147 15.6931C66.6068 14.9336 66.1607 14.2521 65.5835 13.6644ZM64.62 18.132C64.62 18.6616 64.5331 19.1513 64.3606 19.5843C64.1882 20.0187 63.9516 20.3992 63.6565 20.7158C63.3259 21.0679 62.9296 21.3447 62.4793 21.5363C61.5671 21.9267 60.4369 21.9211 59.5475 21.5278C59.0985 21.3305 58.7094 21.0522 58.3873 20.6973C58.0909 20.3793 57.85 19.9974 57.6704 19.5616C57.4937 19.13 57.4039 18.6488 57.4039 18.1306C57.4039 17.6011 57.4937 17.1127 57.6704 16.6811C57.8486 16.2453 58.0909 15.862 58.3859 15.5454C58.7166 15.1934 59.1114 14.9179 59.5617 14.7249C60.0136 14.5318 60.5038 14.4338 61.0198 14.4338C61.5229 14.4338 62.0075 14.5318 62.4593 14.7249C62.9111 14.9194 63.3088 15.1905 63.6394 15.5312C63.9345 15.8365 64.1739 16.2127 64.3506 16.6513C64.5302 17.0928 64.62 17.5911 64.62 18.132Z" fill="white"/>
        <path d="M72.7297 15.5837C73.0604 15.253 73.4466 14.9974 73.8799 14.8214C74.8434 14.4282 76.0705 14.4878 76.9727 14.8739C77.3604 15.04 78.1828 15.6647 78.5433 15.9458C78.6445 16.0238 78.7856 16.0096 78.8712 15.9145L80.2451 14.3756C80.3378 14.272 80.3264 14.1144 80.2166 14.0278C79.7463 13.6587 78.5576 12.7487 77.9604 12.4974C77.1979 12.178 76.3028 12.0162 75.2966 12.0162C74.3702 12.0162 73.5065 12.1752 72.7325 12.4861C71.9572 12.7998 71.2788 13.2427 70.7129 13.8063C70.1514 14.3799 69.7081 15.0471 69.396 15.7896C69.081 16.5363 68.9214 17.3583 68.9214 18.2342C68.9214 19.1229 69.081 19.9548 69.3946 20.7058C69.7081 21.4597 70.1671 22.1326 70.7557 22.7047C71.3301 23.264 72.0071 23.7055 72.7682 24.0179C73.5293 24.3302 74.3801 24.4892 75.2952 24.4892C76.2971 24.4892 77.1922 24.333 77.9547 24.0235C78.559 23.778 79.7505 22.831 80.2152 22.452C80.3221 22.3654 80.3321 22.2092 80.2394 22.1056L78.8697 20.5908C78.7856 20.4971 78.646 20.483 78.5448 20.5596C78.1842 20.835 77.359 21.4511 76.9684 21.6215C76.0677 22.0176 74.8576 22.0872 73.8571 21.6584C73.4038 21.4639 73.0076 21.1914 72.6713 20.845C72.3777 20.5525 72.1368 20.182 71.9543 19.7419C71.7719 19.3032 71.6793 18.7992 71.6793 18.2427C71.6793 17.7132 71.7748 17.2121 71.9643 16.7535C72.1539 16.2936 72.4119 15.9003 72.7297 15.5837Z" fill="white"/>
        <path d="M93.5431 12.2234H90.912C90.7339 12.2234 90.5671 12.31 90.4631 12.4534L87.5185 16.586H85.7198V12.5996C85.7198 12.3923 85.5502 12.2234 85.3421 12.2234H83.3396C83.1315 12.2234 82.9619 12.3923 82.9619 12.5996V23.9042C82.9619 24.1115 83.1315 24.2805 83.3396 24.2805H85.3421C85.5502 24.2805 85.7198 24.1115 85.7198 23.9042V19.1243H87.5484L90.7781 24.032C90.8792 24.1868 91.0531 24.279 91.2384 24.279H93.8096C93.9535 24.279 94.0405 24.12 93.9621 23.9994L89.8944 17.787L93.6913 12.5073C93.7768 12.3895 93.6913 12.2234 93.5431 12.2234Z" fill="white"/>
        <path d="M98.9021 15.5837C99.2327 15.253 99.6204 14.996 100.052 14.8214C101.016 14.4296 102.243 14.4878 103.145 14.8739C103.533 15.04 104.355 15.6647 104.716 15.9458C104.817 16.0238 104.958 16.0096 105.044 15.9145L106.418 14.3756C106.51 14.272 106.499 14.1144 106.389 14.0278C105.919 13.6587 104.73 12.7473 104.133 12.4974C103.37 12.178 102.475 12.0162 101.469 12.0162C100.543 12.0162 99.6788 12.1752 98.9049 12.4861C98.1296 12.7998 97.4511 13.2427 96.8853 13.8063C96.3238 14.3785 95.8805 15.0457 95.5684 15.7896C95.2534 16.5363 95.0938 17.3597 95.0938 18.2342C95.0938 19.1215 95.2534 19.9534 95.5669 20.7058C95.8819 21.4597 96.3394 22.1326 96.9281 22.7047C97.5025 23.264 98.178 23.7055 98.9391 24.0179C99.7016 24.3302 100.553 24.4892 101.468 24.4892C102.47 24.4892 103.365 24.333 104.127 24.0235C104.731 23.778 105.923 22.831 106.389 22.452C106.496 22.3654 106.506 22.2092 106.413 22.1056L105.044 20.5908C104.959 20.4971 104.818 20.483 104.719 20.5596C104.358 20.835 103.531 21.4511 103.142 21.6215C102.24 22.0176 101.03 22.0857 100.031 21.6584C99.5791 21.4639 99.1814 21.1914 98.8451 20.845C98.5529 20.5539 98.3106 20.182 98.1281 19.7419C97.9457 19.3018 97.8531 18.7978 97.8531 18.2427C97.8531 17.7118 97.9486 17.2107 98.1381 16.7535C98.3277 16.2936 98.5842 15.9003 98.9021 15.5837Z" fill="white"/>
        <path d="M116.951 16.4668H111.707V12.4804C111.707 12.2731 111.538 12.1042 111.329 12.1042H109.327C109.119 12.1042 108.949 12.2731 108.949 12.4804V23.785C108.949 23.9923 109.119 24.1613 109.327 24.1613H111.329C111.538 24.1613 111.707 23.9923 111.707 23.785V19.0051H116.951V23.785C116.951 23.9923 117.12 24.1613 117.328 24.1613H119.329C119.539 24.1613 119.707 23.9923 119.707 23.785V12.4804C119.707 12.2731 119.538 12.1042 119.329 12.1042H117.328C117.12 12.1042 116.951 12.2731 116.951 12.4804V16.4668Z" fill="white"/>
        <path d="M126.92 12.5485L121.812 24.0263C121.759 24.1456 121.846 24.2805 121.979 24.2805H124.282C124.499 24.2805 124.695 24.1541 124.784 23.9554L125.568 22.2021H131.163L131.966 23.9596C132.055 24.1555 132.251 24.2805 132.466 24.2805H134.808C134.939 24.2805 135.027 24.1456 134.974 24.0263L129.866 12.5485C129.778 12.3512 129.581 12.2234 129.363 12.2234H127.423C127.205 12.222 127.009 12.3497 126.92 12.5485ZM130.099 19.6638H126.642L128.347 15.3409L130.099 19.6638Z" fill="white"/>
        <path d="M137.461 24.2805H139.425C139.635 24.2805 139.803 24.1115 139.803 23.9042V12.5996C139.803 12.3923 139.633 12.2234 139.425 12.2234H137.461C137.253 12.2234 137.083 12.3923 137.083 12.5996V23.9042C137.083 24.1115 137.253 24.2805 137.461 24.2805Z" fill="white"/>
        <path d="M151.789 20.5766C151.999 20.4645 152.193 20.3367 152.368 20.1976C152.642 19.979 152.891 19.7305 153.11 19.458C153.701 18.7027 154 17.7899 154 16.7422C154 16.0906 153.877 15.4872 153.636 14.9506C153.397 14.421 153.069 13.9455 152.656 13.5352C152.218 13.1136 151.709 12.7856 151.144 12.5613C150.579 12.3384 149.969 12.2249 149.331 12.2249H143.732C143.523 12.2249 143.354 12.3938 143.354 12.6011V23.9057C143.354 24.113 143.524 24.2819 143.732 24.2819H145.733C145.941 24.2819 146.111 24.113 146.111 23.9057V21.2041H149.037L150.722 24.0164C150.821 24.1825 151 24.2833 151.193 24.2833H153.817C153.92 24.2833 153.983 24.1712 153.93 24.0832L151.789 20.5766ZM146.112 14.8001H149.279C149.581 14.8001 149.869 14.8597 150.132 14.9761C150.391 15.0925 150.593 15.2444 150.769 15.4631C151.088 15.8009 151.242 16.2212 151.242 16.7507C151.242 16.9977 151.198 17.2433 151.112 17.479C151.027 17.7132 150.901 17.9148 150.716 18.1121C150.575 18.2825 150.391 18.4131 150.159 18.5125C149.919 18.6133 149.656 18.663 149.375 18.663H146.112V14.8001Z" fill="white"/>
    </g>
    <defs>
        <clipPath id="clip0">
            <rect width="154" height="35" fill="white" transform="translate(0 0.5)"/>
        </clipPath>
    </defs>
</svg>
