<svg width="201" height="47" viewBox="0 0 201 47" fill="none" xmlns="http://www.w3.org/2000/svg">
<path d="M13.8275 46.1247L24.7485 39.2981V25.3582C24.7485 25.0861 24.7004 24.8251 24.6189 24.5752L13.5869 31.4702C13.7424 31.8404 13.8275 32.2439 13.8275 32.6604V46.1247Z" fill="#1E1E1E"/>
<path d="M11.421 0.490234L0.5 7.31676V21.2567C0.5 21.5288 0.548126 21.7898 0.629571 22.0397L11.6616 15.1447C11.5061 14.7745 11.421 14.371 11.421 13.9545V0.490234Z" fill="#1E1E1E"/>
<path d="M12.0301 15.7861L0.962891 22.7052C1.14984 22.9681 1.39047 23.1976 1.67553 23.3771L12.3929 30.0759C12.7187 30.2796 12.9963 30.5368 13.2184 30.833L24.2875 23.9158C24.1005 23.6529 23.8599 23.4234 23.5749 23.2439L12.8575 16.545C12.5299 16.3396 12.2541 16.0823 12.0301 15.7861Z" fill="#1E1E1E"/>
<path d="M11.4209 46.1252V33.7549L1.56055 39.9632L11.4209 46.1252Z" fill="#1E1E1E"/>
<path d="M52.9832 22.7518C53.1849 22.5685 53.3626 22.3667 53.52 22.1446C53.7143 21.867 53.8476 21.5597 53.9309 21.2302C54.0216 20.8767 54.066 20.5083 54.066 20.1381C54.066 19.5384 53.9679 18.9868 53.7754 18.4981C53.5792 18.0058 53.2904 17.5652 52.9184 17.1932C52.4445 16.7193 51.8763 16.3602 51.2321 16.1233C50.6009 15.8919 49.929 15.7734 49.2349 15.7734H41.618C41.3477 15.7734 41.1274 15.9937 41.1274 16.264V31.0036C41.1274 31.2738 41.3477 31.4941 41.618 31.4941H49.5292C50.2918 31.4941 51.0081 31.3627 51.6615 31.1035C52.3112 30.8462 52.8962 30.4779 53.3959 30.0133C53.8679 29.5764 54.2419 29.0507 54.5065 28.451C54.7694 27.8513 54.9027 27.1905 54.9027 26.4889C54.9027 25.4579 54.625 24.5454 54.0697 23.7661C53.7624 23.3607 53.3978 23.0201 52.9832 22.7518ZM49.5606 28.2585H44.7091V24.7231H49.6847C49.9438 24.7231 50.1881 24.7768 50.4306 24.8897C50.6787 25.0044 50.8841 25.1507 51.0433 25.3228C51.2802 25.5968 51.395 25.9707 51.395 26.4667C51.395 26.7203 51.3543 26.961 51.2765 27.1794C51.2006 27.3867 51.1007 27.5514 50.9822 27.6717C50.7934 27.8476 50.5713 27.992 50.3196 28.1012C50.0715 28.2067 49.8253 28.2585 49.5606 28.2585ZM50.2344 21.1303C50.1419 21.2358 50.029 21.3209 49.892 21.3931C49.7717 21.456 49.6384 21.4857 49.4848 21.4857H44.7091V19.0109H49.0942C49.5662 19.0109 49.9271 19.1312 50.1992 19.3811C50.4251 19.5847 50.5343 19.8716 50.5343 20.2603C50.5324 20.6083 50.4325 20.8952 50.2344 21.1303Z" fill="#1E1E1E"/>
<path d="M61.4247 15.7764H58.824C58.5519 15.7764 58.3335 15.9966 58.3335 16.2669V31.0065C58.3335 31.2767 58.5538 31.497 58.824 31.497H69.9449C70.217 31.497 70.4354 31.2767 70.4354 31.0065V28.6779C70.4354 28.4077 70.2151 28.1874 69.9449 28.1874H61.9152V16.2669C61.9152 15.9948 61.6949 15.7764 61.4247 15.7764Z" fill="#1E1E1E"/>
<path d="M85.6734 17.655C84.9423 16.9238 84.0649 16.35 83.0635 15.9484C82.0676 15.5504 80.9515 15.3486 79.7483 15.3486C78.5063 15.3486 77.3531 15.5726 76.324 16.015C75.2911 16.4574 74.3971 17.0793 73.6678 17.8605C72.9718 18.5898 72.4257 19.4449 72.0444 20.4C71.6631 21.3552 71.4688 22.3917 71.4688 23.482C71.4688 24.5241 71.6668 25.5366 72.0574 26.4936C72.4479 27.4468 72.9792 28.2891 73.64 28.9998C74.3693 29.781 75.2652 30.4177 76.2999 30.8934C77.342 31.371 78.5026 31.6135 79.7483 31.6135C80.9867 31.6135 82.125 31.3987 83.1338 30.973C84.1389 30.5473 85.0274 29.9439 85.7752 29.1812C86.4897 28.4501 87.045 27.5894 87.4282 26.6231C87.8095 25.6606 88.0038 24.6037 88.0038 23.482C88.0038 22.3584 87.8021 21.2885 87.4023 20.3001C87.0024 19.3098 86.4231 18.4213 85.6734 17.655ZM84.4221 23.4801C84.4221 24.1706 84.3092 24.8091 84.0852 25.3737C83.8613 25.9401 83.554 26.4362 83.1708 26.849C82.7414 27.308 82.2268 27.669 81.6419 27.9188C80.4573 28.4279 78.9894 28.4205 77.8344 27.9077C77.2513 27.6505 76.746 27.2877 76.3277 26.8249C75.9426 26.4103 75.6298 25.9124 75.3966 25.3441C75.1671 24.7814 75.0505 24.1539 75.0505 23.4783C75.0505 22.7878 75.1671 22.1511 75.3966 21.5884C75.628 21.0201 75.9426 20.5204 76.3258 20.1076C76.7552 19.6485 77.268 19.2894 77.8529 19.0377C78.4397 18.786 79.0764 18.6582 79.7465 18.6582C80.3999 18.6582 81.0292 18.786 81.616 19.0377C82.2028 19.2913 82.7192 19.6448 83.1486 20.0891C83.5318 20.487 83.8428 20.9776 84.0723 21.5495C84.3055 22.1252 84.4221 22.7749 84.4221 23.4801Z" fill="#1E1E1E"/>
<path d="M94.9552 20.1574C95.3846 19.7262 95.8862 19.393 96.4489 19.1635C97.7002 18.6507 99.2939 18.7285 100.466 19.2319C100.969 19.4485 102.037 20.263 102.505 20.6295C102.637 20.7313 102.82 20.7128 102.931 20.5887L104.716 18.5822C104.836 18.4471 104.821 18.2417 104.679 18.1287C104.068 17.6475 102.524 16.461 101.748 16.1334C100.758 15.7169 99.5957 15.5059 98.2888 15.5059C97.0857 15.5059 95.964 15.7132 94.9589 16.1185C93.9519 16.5276 93.0709 17.1051 92.336 17.84C91.6067 18.5878 91.031 19.4578 90.6257 20.4258C90.2166 21.3995 90.0093 22.4712 90.0093 23.6133C90.0093 24.772 90.2166 25.8567 90.6238 26.8359C91.031 27.8188 91.6271 28.6962 92.3915 29.4421C93.1375 30.1714 94.0167 30.7471 95.0052 31.1543C95.9936 31.5615 97.0986 31.7688 98.287 31.7688C99.5883 31.7688 100.751 31.5652 101.741 31.1617C102.526 30.8415 104.073 29.6069 104.677 29.1126C104.816 28.9997 104.828 28.7961 104.708 28.661L102.929 26.686C102.82 26.5638 102.639 26.5453 102.507 26.6452C102.039 27.0043 100.967 27.8077 100.46 28.0298C99.2903 28.5462 97.7187 28.6369 96.4193 28.0779C95.8307 27.8243 95.3161 27.4689 94.8793 27.0173C94.498 26.636 94.1852 26.1529 93.9482 25.5791C93.7113 25.0071 93.591 24.35 93.591 23.6244C93.591 22.934 93.715 22.2806 93.9612 21.6827C94.2074 21.083 94.5424 20.5702 94.9552 20.1574Z" fill="#1E1E1E"/>
<path d="M121.985 15.7764H118.568C118.336 15.7764 118.12 15.8893 117.985 16.0762L114.16 21.4645H111.824V16.2669C111.824 15.9966 111.604 15.7764 111.334 15.7764H108.733C108.463 15.7764 108.243 15.9966 108.243 16.2669V31.0065C108.243 31.2767 108.463 31.497 108.733 31.497H111.334C111.604 31.497 111.824 31.2767 111.824 31.0065V24.7741H114.199L118.394 31.1731C118.525 31.3748 118.751 31.4952 118.991 31.4952H122.331C122.518 31.4952 122.631 31.2878 122.529 31.1305L117.246 23.0305L122.177 16.1466C122.288 15.9929 122.177 15.7764 121.985 15.7764Z" fill="#1E1E1E"/>
<path d="M128.944 20.1574C129.374 19.7262 129.877 19.3911 130.438 19.1635C131.689 18.6526 133.283 18.7285 134.455 19.2319C134.958 19.4485 136.026 20.263 136.495 20.6295C136.626 20.7313 136.809 20.7128 136.92 20.5887L138.705 18.5822C138.825 18.4471 138.81 18.2417 138.668 18.1287C138.057 17.6475 136.513 16.4591 135.738 16.1334C134.747 15.7169 133.585 15.5059 132.278 15.5059C131.075 15.5059 129.953 15.7132 128.948 16.1185C127.941 16.5276 127.06 17.1051 126.325 17.84C125.596 18.5859 125.02 19.4559 124.615 20.4258C124.206 21.3995 123.999 22.4731 123.999 23.6133C123.999 24.7702 124.206 25.8549 124.613 26.8359C125.022 27.8188 125.616 28.6962 126.381 29.4421C127.127 30.1714 128.004 30.7471 128.993 31.1543C129.983 31.5615 131.088 31.7688 132.276 31.7688C133.578 31.7688 134.74 31.5652 135.73 31.1617C136.515 30.8415 138.063 29.6069 138.668 29.1126C138.807 28.9997 138.82 28.7961 138.699 28.661L136.92 26.686C136.811 26.5638 136.628 26.5453 136.498 26.6452C136.03 27.0043 134.957 27.8077 134.451 28.0298C133.28 28.5462 131.708 28.6351 130.41 28.0779C129.824 27.8243 129.307 27.4689 128.87 27.0173C128.491 26.6378 128.176 26.1529 127.939 25.5791C127.702 25.0052 127.582 24.3481 127.582 23.6244C127.582 22.9321 127.706 22.2787 127.952 21.6827C128.198 21.083 128.532 20.5702 128.944 20.1574Z" fill="#1E1E1E"/>
<path d="M152.384 21.3083H145.574V16.1106C145.574 15.8404 145.354 15.6201 145.084 15.6201H142.483C142.213 15.6201 141.993 15.8404 141.993 16.1106V30.8502C141.993 31.1205 142.213 31.3408 142.483 31.3408H145.084C145.354 31.3408 145.574 31.1205 145.574 30.8502V24.6179H152.384V30.8502C152.384 31.1205 152.605 31.3408 152.875 31.3408H155.474C155.746 31.3408 155.964 31.1205 155.964 30.8502V16.1106C155.964 15.8404 155.744 15.6201 155.474 15.6201H152.875C152.605 15.6201 152.384 15.8404 152.384 16.1106V21.3083Z" fill="#1E1E1E"/>
<path d="M165.331 16.2003L158.697 31.1657C158.628 31.3212 158.741 31.497 158.913 31.497H161.904C162.186 31.497 162.441 31.3323 162.556 31.0731L163.574 28.7871H170.841L171.883 31.0787C172 31.3341 172.253 31.497 172.533 31.497H175.574C175.744 31.497 175.859 31.3212 175.791 31.1657L169.157 16.2003C169.042 15.943 168.786 15.7764 168.503 15.7764H165.984C165.701 15.7745 165.445 15.9411 165.331 16.2003ZM169.458 25.4775H164.97L167.183 19.8412L169.458 25.4775Z" fill="#1E1E1E"/>
<path d="M179.022 31.497H181.573C181.845 31.497 182.063 31.2767 182.063 31.0065V16.2669C182.063 15.9966 181.843 15.7764 181.573 15.7764H179.022C178.752 15.7764 178.532 15.9966 178.532 16.2669V31.0065C178.532 31.2767 178.752 31.497 179.022 31.497Z" fill="#1E1E1E"/>
<path d="M197.629 26.6678C197.901 26.5216 198.152 26.355 198.38 26.1736C198.736 25.8885 199.059 25.5646 199.344 25.2092C200.111 24.2245 200.5 23.0343 200.5 21.6682C200.5 20.8186 200.34 20.0319 200.028 19.3323C199.717 18.6418 199.291 18.0217 198.754 17.4868C198.186 16.9371 197.525 16.5095 196.79 16.217C196.057 15.9264 195.265 15.7783 194.436 15.7783H187.165C186.893 15.7783 186.674 15.9986 186.674 16.2688V31.0084C186.674 31.2787 186.895 31.499 187.165 31.499H189.764C190.034 31.499 190.254 31.2787 190.254 31.0084V27.486H194.054L196.242 31.1528C196.372 31.3694 196.603 31.5008 196.855 31.5008H200.263C200.396 31.5008 200.477 31.3546 200.409 31.2398L197.629 26.6678ZM190.256 19.1361H194.369C194.761 19.1361 195.135 19.2138 195.476 19.3656C195.813 19.5174 196.076 19.7154 196.303 20.0005C196.718 20.441 196.918 20.9889 196.918 21.6793C196.918 22.0014 196.86 22.3216 196.749 22.6289C196.638 22.9343 196.475 23.1972 196.235 23.4545C196.052 23.6766 195.813 23.8469 195.511 23.9765C195.2 24.1079 194.858 24.1727 194.493 24.1727H190.256V19.1361Z" fill="#1E1E1E"/>
</svg>
