<svg width="150" height="150" viewBox="0 0 150 150" fill="none" xmlns="http://www.w3.org/2000/svg">
    <path d="M22 28.3802V130.328C22 133.212 25.1888 134.955 27.6165 133.398C32.116 130.513 37.9507 130.556 42.4503 133.441C45.802 135.591 50.1483 135.622 53.5 133.473C58.0705 130.542 63.9295 130.542 68.5 133.473C71.8517 135.622 76.1483 135.622 79.5 133.473C84.0705 130.542 89.9295 130.542 94.5 133.473C97.8517 135.622 102.198 135.591 105.55 133.441C110.049 130.556 115.884 130.513 120.384 133.398C122.811 134.955 126 133.212 126 130.328V28.3802C126 19.8587 119.043 13 110.4 13H37.6C28.9568 13 22 19.8587 22 28.3802Z" fill="url(#paint0_angular)"/>
    <rect x="25" y="16" width="58" height="40" rx="12" fill="#0A0A0A"/>
    <path d="M46.618 33.34C46.618 34.0867 46.438 34.7867 46.078 35.44C45.7313 36.0934 45.178 36.62 44.418 37.02C43.6713 37.42 42.7247 37.62 41.578 37.62H39.238V42.98H36.438V29.02H41.578C42.658 29.02 43.578 29.2067 44.338 29.58C45.098 29.9534 45.6647 30.4667 46.038 31.12C46.4247 31.7734 46.618 32.5134 46.618 33.34ZM41.458 35.36C42.2313 35.36 42.8047 35.1867 43.178 34.84C43.5513 34.48 43.738 33.98 43.738 33.34C43.738 31.98 42.978 31.3 41.458 31.3H39.238V35.36H41.458Z" fill="white"/>
    <path d="M53.486 29.02C54.9526 29.02 56.2393 29.3067 57.346 29.88C58.466 30.4534 59.326 31.2734 59.926 32.34C60.5393 33.3934 60.846 34.62 60.846 36.02C60.846 37.42 60.5393 38.6467 59.926 39.7C59.326 40.74 58.466 41.5467 57.346 42.12C56.2393 42.6934 54.9526 42.98 53.486 42.98H48.606V29.02H53.486ZM53.386 40.6C54.8526 40.6 55.986 40.2 56.786 39.4C57.586 38.6 57.986 37.4734 57.986 36.02C57.986 34.5667 57.586 33.4334 56.786 32.62C55.986 31.7934 54.8526 31.38 53.386 31.38H51.406V40.6H53.386Z" fill="white"/>
    <path d="M71.5619 29.02V31.28H65.7419V34.86H70.2019V37.08H65.7419V42.98H62.9419V29.02H71.5619Z" fill="white"/>
    <rect x="30" y="97" width="88" height="21" rx="5" fill="#EE17A3"/>
    <rect x="30" y="73" width="18" height="18" rx="5" fill="#F02316"/>
    <rect x="30" y="61" width="37" height="6" rx="3" fill="#F04A0D"/>
    <rect x="53" y="73" width="57" height="6" rx="3" fill="url(#paint1_linear)"/>
    <rect x="53" y="85" width="30" height="6" rx="3" fill="url(#paint2_linear)"/>
    <defs>
        <radialGradient id="paint0_angular" cx="0" cy="0" r="1" gradientUnits="userSpaceOnUse" gradientTransform="translate(74 76.0598) rotate(-90) scale(63.0598 52.8889)">
            <stop offset="0.161458" stop-color="#EE26FF"/>
            <stop offset="0.703125" stop-color="#F0011E"/>
            <stop offset="1" stop-color="#F08201"/>
        </radialGradient>
        <linearGradient id="paint1_linear" x1="110" y1="76" x2="100.393" y2="96.9978" gradientUnits="userSpaceOnUse">
            <stop offset="0.161458" stop-color="#EE26FF"/>
            <stop offset="0.994792" stop-color="#F03911"/>
        </linearGradient>
        <linearGradient id="paint2_linear" x1="83" y1="88" x2="70.4267" y2="102.463" gradientUnits="userSpaceOnUse">
            <stop offset="0.161458" stop-color="#EE26FF"/>
            <stop offset="0.994792" stop-color="#F03911"/>
        </linearGradient>
    </defs>
</svg>
