<svg width="19" height="18" viewBox="0 0 19 18" fill="none" xmlns="http://www.w3.org/2000/svg">
    <rect x="0.897949" y="4.56006" width="18" height="11.88" rx="1.45171" fill="url(#paint0_radial)"/>
    <rect x="0.897949" y="4.56006" width="18" height="11.4" rx="1.45171" fill="url(#paint1_radial)"/>
    <rect x="0.897949" y="4.56006" width="18" height="10.56" rx="1.45171" fill="url(#paint2_radial)"/>
    <path fill-rule="evenodd" clip-rule="evenodd" d="M7.14946 2.64005H12.646C12.9176 2.64005 13.1378 2.8602 13.1378 3.13176V4.60799H14.0978V3.13176C14.0978 2.33001 13.4478 1.68005 12.646 1.68005H7.14946C6.34771 1.68005 5.69775 2.33001 5.69775 3.13176V4.60799H6.65775V3.13176C6.65775 2.8602 6.8779 2.64005 7.14946 2.64005Z" fill="url(#paint3_linear)"/>
    <path fill-rule="evenodd" clip-rule="evenodd" d="M7.14946 2.64005H12.646C12.9176 2.64005 13.1378 2.8602 13.1378 3.13176V4.60799H14.0978V3.13176C14.0978 2.33001 13.4478 1.68005 12.646 1.68005H7.14946C6.34771 1.68005 5.69775 2.33001 5.69775 3.13176V4.60799H6.65775V3.13176C6.65775 2.8602 6.8779 2.64005 7.14946 2.64005Z" fill="url(#paint4_radial)"/>
    <path d="M1.25237 6.21524C1.12865 5.34126 1.80706 4.56006 2.68975 4.56006H17.1064C17.9891 4.56006 18.6675 5.34126 18.5438 6.21524L18.0884 9.43183C17.9871 10.1478 17.3742 10.6801 16.651 10.6801H3.14509C2.42194 10.6801 1.80907 10.1478 1.70771 9.43183L1.25237 6.21524Z" fill="url(#paint5_radial)"/>
    <path d="M1.99734 8.40347C1.82506 7.56828 2.46293 6.7854 3.31571 6.7854H16.4798C17.3326 6.7854 17.9705 7.56828 17.7982 8.40347L17.5502 9.60576C17.4212 10.2312 16.8704 10.6799 16.2318 10.6799H3.56371C2.92508 10.6799 2.37435 10.2312 2.24533 9.60576L1.99734 8.40347Z" fill="url(#paint6_radial)"/>
    <path fill-rule="evenodd" clip-rule="evenodd" d="M5.45807 11.6316V10.08C5.45807 9.74861 5.7267 9.47998 6.05807 9.47998C6.38944 9.47998 6.65807 9.74861 6.65807 10.08V12C6.65807 12.0028 6.65805 12.0056 6.65801 12.0084V12.24C6.65801 12.5714 6.38938 12.84 6.05801 12.84C5.72664 12.84 5.45801 12.5714 5.45801 12.24V11.64C5.45801 11.6372 5.45803 11.6344 5.45807 11.6316ZM6.29514 11.0887V10.08C6.29514 9.94905 6.189 9.84291 6.05807 9.84291C5.92713 9.84291 5.82099 9.94905 5.82099 10.08V11.0886C5.8937 11.0573 5.97383 11.04 6.05801 11.04C6.14223 11.04 6.2224 11.0574 6.29514 11.0887Z" fill="url(#paint7_linear)"/>
    <path fill-rule="evenodd" clip-rule="evenodd" d="M13.258 12.013C13.2579 12.0087 13.2578 12.0043 13.2578 12V10.08C13.2578 9.74861 13.5264 9.47998 13.8578 9.47998C14.1892 9.47998 14.4578 9.74861 14.4578 10.08V11.627C14.4579 11.6313 14.458 11.6357 14.458 11.64V12.24C14.458 12.5714 14.1893 12.84 13.858 12.84C13.5266 12.84 13.258 12.5714 13.258 12.24V12.013ZM14.0949 11.0886V10.08C14.0949 9.94905 13.9887 9.84291 13.8578 9.84291C13.7269 9.84291 13.6207 9.94905 13.6207 10.08V11.0887C13.6935 11.0574 13.7737 11.04 13.858 11.04C13.9421 11.04 14.0222 11.0573 14.0949 11.0886Z" fill="url(#paint8_linear)"/>
    <defs>
        <radialGradient id="paint0_radial" cx="0" cy="0" r="1" gradientUnits="userSpaceOnUse" gradientTransform="translate(12.298 11.1464) rotate(122.453) scale(5.81431 16.9446)">
            <stop stop-color="#A400D6"/>
            <stop offset="0.848958" stop-color="#170876"/>
        </radialGradient>
        <radialGradient id="paint1_radial" cx="0" cy="0" r="1" gradientUnits="userSpaceOnUse" gradientTransform="translate(12.298 10.8802) rotate(123.532) scale(5.64804 16.7387)">
            <stop stop-color="#A400D6"/>
            <stop offset="0.848958" stop-color="#1F0C95"/>
        </radialGradient>
        <radialGradient id="paint2_radial" cx="0" cy="0" r="1" gradientUnits="userSpaceOnUse" gradientTransform="translate(12.298 10.4146) rotate(125.58) scale(5.36229 16.3316)">
            <stop stop-color="#A400D6"/>
            <stop offset="0.848958" stop-color="#1F0C95"/>
        </radialGradient>
        <linearGradient id="paint3_linear" x1="9.29344" y1="1.68005" x2="9.76521" y2="4.52995" gradientUnits="userSpaceOnUse">
            <stop stop-color="#A400D6"/>
            <stop offset="1" stop-color="#2207C4"/>
        </linearGradient>
        <radialGradient id="paint4_radial" cx="0" cy="0" r="1" gradientUnits="userSpaceOnUse" gradientTransform="translate(13.8578 3.42005) rotate(165.411) scale(4.71639 25.7684)">
            <stop stop-color="#A400D6"/>
            <stop offset="1" stop-color="#2207C4"/>
        </radialGradient>
        <radialGradient id="paint5_radial" cx="0" cy="0" r="1" gradientUnits="userSpaceOnUse" gradientTransform="translate(17.5334 4.64578) rotate(154.093) scale(17.4801 184.407)">
            <stop offset="0.0243755" stop-color="#C409FC"/>
            <stop offset="1" stop-color="#2207C4"/>
        </radialGradient>
        <radialGradient id="paint6_radial" cx="0" cy="0" r="1" gradientUnits="userSpaceOnUse" gradientTransform="translate(16.9778 6.83995) rotate(161.565) scale(15.3687 123.765)">
            <stop offset="0.0243755" stop-color="#C409FC"/>
            <stop offset="1" stop-color="#2207C4"/>
        </radialGradient>
        <linearGradient id="paint7_linear" x1="9.29801" y1="8.93998" x2="9.39458" y2="12.3516" gradientUnits="userSpaceOnUse">
            <stop stop-color="#A400D6"/>
            <stop offset="1" stop-color="#2207C4"/>
        </linearGradient>
        <linearGradient id="paint8_linear" x1="13.8579" y1="9.65998" x2="15.6079" y2="11.6531" gradientUnits="userSpaceOnUse">
            <stop stop-color="#A400D6"/>
            <stop offset="1" stop-color="#2207C4"/>
        </linearGradient>
    </defs>
</svg>
