<svg width="55" height="55" viewBox="0 0 57 57" fill="none" xmlns="http://www.w3.org/2000/svg">
    <path d="M28.1665 55.0179C43.3543 55.0179 55.6665 42.7079 55.6665 27.5179C55.6665 12.3279 43.3543 0.0179443 28.1665 0.0179443C12.9787 0.0179443 0.666504 12.3301 0.666504 27.5179C0.666504 42.7058 12.9787 55.0179 28.1665 55.0179Z" fill="url(#g_logo-ripple0)"/>
    <path d="M37.8303 32.4266C36.9871 30.6947 35.3166 29.6834 33.5621 29.5879C32.7916 29.5447 32.0894 29.1402 31.7075 28.472L31.6939 28.447C31.3007 27.7584 31.303 26.9129 31.703 26.2288L31.7189 26.2016C32.1053 25.5379 32.8098 25.1357 33.578 25.1016C35.3598 25.0197 37.0575 23.9947 37.9007 22.2379C38.9825 19.9857 38.2212 17.2334 36.1371 15.8584C33.678 14.2357 30.4007 15.047 28.9666 17.5675C28.0848 19.1152 28.1121 20.9311 28.8803 22.4016C29.2257 23.0652 29.1916 23.8652 28.8144 24.5107L28.7984 24.5357C28.3984 25.2197 27.6666 25.6402 26.8734 25.6379H26.8416C26.0734 25.6357 25.3734 25.2266 24.9598 24.5788C23.9984 23.0766 22.2621 22.1197 20.3189 22.2652C17.828 22.4538 15.8234 24.4902 15.6757 26.9834C15.5007 29.9266 17.8416 32.3561 20.7416 32.3402C22.5144 32.3288 24.0666 31.4061 24.9575 30.0197C25.3666 29.3834 26.0734 28.9993 26.8303 29.0016H26.8598C27.653 29.0038 28.3825 29.4311 28.7757 30.1175L28.7894 30.1402C29.1598 30.7902 29.1962 31.5879 28.8439 32.2493C28.0462 33.7447 28.0212 35.6061 28.9394 37.1743C30.4053 39.6766 33.6916 40.4493 36.1325 38.7947C38.1848 37.4016 38.9189 34.6607 37.8303 32.4266Z" stroke="white" stroke-width="2.8" stroke-miterlimit="10"/>
    <defs>
        <linearGradient id="g_logo-ripple0" x1="39.1665" y1="39.0679" x2="3.17955" y2="-2.17485" gradientUnits="userSpaceOnUse">
            <stop stop-color="#21CDF3"/>
            <stop offset="1" stop-color="#215FFF"/>
        </linearGradient>
    </defs>
</svg>
