<svg width="25" height="25" viewBox="0 0 25 25" fill="none" xmlns="http://www.w3.org/2000/svg">
<g clip-path="url(#clip0)">
<path d="M22.034 7.23898C23.01 6.54598 23.831 5.68098 24.5 4.68498V4.68398C23.607 5.07498 22.657 5.33498 21.665 5.46098C22.685 4.85198 23.464 3.89498 23.83 2.74198C22.879 3.30898 21.829 3.70898 20.71 3.93298C19.807 2.97098 18.52 2.37598 17.116 2.37598C14.392 2.37598 12.199 4.58698 12.199 7.29698C12.199 7.68698 12.232 8.06198 12.313 8.41898C8.223 8.21898 4.603 6.25898 2.171 3.27198C1.747 4.00898 1.497 4.85198 1.497 5.75898C1.497 7.46298 2.374 8.97298 3.683 9.84798C2.892 9.83298 2.117 9.60298 1.46 9.24198V9.29598C1.46 11.687 3.165 13.673 5.402 14.131C5.001 14.241 4.565 14.293 4.112 14.293C3.797 14.293 3.479 14.275 3.181 14.209C3.818 16.157 5.628 17.59 7.778 17.637C6.104 18.946 3.978 19.735 1.677 19.735C1.274 19.735 0.887 19.717 0.5 19.668C2.68 21.073 5.262 21.876 8.048 21.876C16.731 21.876 22.39 14.632 22.034 7.23898Z" fill="white"/>
</g>
<defs>
<clipPath id="clip0">
<rect width="24" height="24" fill="white" transform="translate(0.5 0.125977)"/>
</clipPath>
</defs>
</svg>
