<svg width="45" height="56" viewBox="0 0 45 56" fill="none" xmlns="http://www.w3.org/2000/svg">
<path d="M32.6929 2.2493L37.9864 4.78706L9.24775 21.228C8.58981 21.6077 7.71006 21.8069 6.79646 21.8257C5.88663 21.8408 4.96552 21.6791 4.22863 21.3295C3.4955 20.9761 3.1045 20.5099 3.05186 20.0324C3.00299 19.5512 3.29624 19.0737 3.95041 18.694L32.6929 2.2493Z" fill="url(#paint0_linear_7697_137812)"/>
<path d="M41.5729 4.17795C41.5429 6.47133 41.5128 8.76471 41.4865 11.0581C41.4827 11.2085 41.3774 11.3551 41.1895 11.4641L41.2759 4.58399C41.4639 4.47496 41.5692 4.32833 41.5729 4.17795Z" fill="black"/>
<path d="M35.1468 0.741669L35.0603 3.37718L3.86279 21.3257L3.94926 18.6902L35.1468 0.741669Z" fill="url(#paint1_linear_7697_137812)"/>
<path d="M2.95801 26.7922C2.98808 24.4989 3.01816 22.2055 3.04448 19.9121C3.052 19.4722 3.34901 19.0361 3.95055 18.6865L3.86408 25.5666C3.26254 25.9163 2.96553 26.3524 2.95801 26.7922Z" fill="url(#paint2_linear_7697_137812)"/>
<path d="M2.96519 26.9088C2.96143 26.8712 2.96143 26.8298 2.96143 26.7922C2.9915 24.4988 3.02158 22.2055 3.0479 19.9121C3.0479 19.9497 3.0479 19.9873 3.05166 20.0286C3.02158 22.322 2.9915 24.6154 2.96519 26.9088Z" fill="white"/>
<path d="M38.7446 4.20056L38.6544 11.0769L9.15625 28.1044L9.24648 21.228L38.7446 4.20056Z" fill="white"/>
<path d="M6.70919 28.7021C6.70919 28.7021 6.70543 28.7021 6.70919 28.7021C6.73927 26.4087 6.76934 24.1154 6.79566 21.8257C6.76558 24.1154 6.73551 26.4087 6.70919 28.7021Z" fill="white"/>
<path d="M4.14137 28.2058C3.40824 27.8524 3.01723 27.3862 2.9646 26.9088C2.99468 24.6154 3.02475 22.322 3.05107 20.0286C3.10371 20.5061 3.49471 20.9723 4.22784 21.3257C4.96097 21.6791 5.88208 21.8408 6.79567 21.822C6.7656 24.1154 6.73552 26.4087 6.7092 28.6984C6.73928 26.405 6.76936 24.1116 6.79567 21.822C7.70927 21.8032 8.58902 21.6039 9.24696 21.2242L9.16049 28.1043C8.50255 28.4841 7.6228 28.6833 6.7092 28.7021C5.79561 28.7172 4.8745 28.5555 4.14137 28.2058Z" fill="white"/>
<path d="M41.2709 4.58405L41.1845 11.4642L10.9043 28.9428L10.9908 22.0664L41.2709 4.58405Z" fill="black"/>
<path d="M41.181 3.71553L40.1321 3.21174C39.6697 3.61778 9.24664 21.2279 9.24664 21.2279C8.58871 21.6077 7.70895 21.8069 6.79536 21.8257C5.88552 21.8408 4.96441 21.6791 4.22752 21.3295C3.49439 20.976 3.10339 20.5098 3.05076 20.0324C3.00188 19.5511 3.29513 19.0737 3.94931 18.6939C3.94931 18.6939 34.5002 1.10258 34.9175 0.737898L34.1392 0.346896C33.9099 0.237866 33.5978 0.177712 33.2933 0.181471C32.985 0.18899 32.6918 0.260424 32.485 0.376973L2.20484 17.8518C1.12206 18.4759 0.625787 19.2842 0.712259 20.0737C0.794971 20.8633 1.07318 21.6189 2.15972 22.4085C3.34401 23.2694 4.14481 23.4574 5.74266 23.7055C8.03228 24.0552 9.90834 22.6942 10.1226 22.6716L40.4028 5.19307C41.4781 4.47122 42.1749 4.53609 42.1561 4.37443C42.1373 4.209 41.4104 3.82456 41.181 3.71553Z" fill="url(#paint3_linear_7697_137812)"/>
<path d="M10.3971 53.1511L5.58472 50.3576L36.0604 32.7625L40.8727 35.5597L10.3971 53.1511Z" fill="black"/>
<path d="M4.90822 50.6321C5.10373 50.5945 5.32555 50.508 5.58872 50.3576L10.3973 53.1548C10.1341 53.3052 9.91231 53.3917 9.71681 53.4293C9.401 53.4894 9.14158 53.4405 8.916 53.309L4.10742 50.5118C4.333 50.6434 4.59242 50.6922 4.90822 50.6321Z" fill="black"/>
<path d="M4.06273 50.4854C3.88603 50.3726 3.73564 50.2072 3.61157 50.0155C5.21318 50.9479 6.81855 51.8803 8.42015 52.8126C8.54422 53.0044 8.69461 53.1698 8.87131 53.2826C8.88635 53.2939 8.90139 53.3014 8.91643 53.3089L4.10785 50.5117C4.09281 50.5005 4.07777 50.4929 4.06273 50.4854Z" fill="white"/>
<path d="M3.61157 50.0155C5.21318 50.9479 6.81855 51.8803 8.42015 52.8126C6.81855 51.8765 5.21318 50.9441 3.61157 50.0155Z" fill="white"/>
<path d="M3.2206 49.1282C3.18677 49.0117 3.16421 48.9102 3.14917 48.835C3.94997 49.3012 4.75454 49.7674 5.55534 50.2335C6.35614 50.6997 7.15695 51.1659 7.96151 51.6321C7.97655 51.7073 7.99911 51.8126 8.03294 51.9254C8.10814 52.1886 8.2322 52.5269 8.42019 52.8127C6.81482 51.8803 5.21321 50.9479 3.61161 50.0155C3.42362 49.7298 3.2958 49.3914 3.2206 49.1282Z" fill="white"/>
<path d="M3.14829 48.835C3.14453 48.8237 3.14453 48.8162 3.14453 48.8087L7.95311 51.6058C7.95311 51.6133 7.95687 51.6246 7.95687 51.6321C7.15607 51.1659 6.35526 50.6998 5.5507 50.2336C4.75366 49.7674 3.94909 49.3012 3.14829 48.835Z" fill="white"/>
<path d="M6.35576 52.7751L0.565917 49.1658C0.558398 49.1207 0.550879 49.0869 0.547119 49.0493L6.33697 52.6585C6.34072 52.6961 6.34448 52.7299 6.35576 52.7751Z" fill="black"/>
<path d="M40.7904 6.76834L40.8731 35.5597L10.3974 53.1548C10.1343 53.3052 9.91243 53.3917 9.71693 53.4292C9.37856 53.4932 9.10787 53.433 8.87101 53.2789C8.69431 53.1661 8.54392 53.0006 8.41986 52.8089C8.23187 52.5269 8.10781 52.1886 8.03261 51.9216C7.99502 51.79 7.9687 51.6773 7.95366 51.6021L7.86719 25.7733L40.7904 6.76834Z" fill="url(#paint4_linear_7697_137812)"/>
<path d="M7.95413 51.6021L3.14555 48.8087L3.05908 22.9799L7.86766 25.7734L7.95413 51.6021Z" fill="white"/>
<path fill-rule="evenodd" clip-rule="evenodd" d="M0.686327 23.3145C0.684447 24.4575 0.682567 25.6004 0.667529 26.7471C0.667529 26.7663 0.666852 26.7912 0.666109 26.8186C0.664371 26.8826 0.662264 26.9603 0.667529 27.0103C0.67265 27.0592 0.679832 27.1078 0.689089 27.1563L0.607194 49.2L0.55835 49.1696C0.588427 49.3388 0.65234 49.6508 0.780168 50.0155C0.877919 50.29 1.00951 50.5907 1.18997 50.8727C1.38923 51.1772 1.55089 51.3389 1.98701 51.666L7.69209 55.2224C7.71978 55.2406 7.74804 55.2583 7.77686 55.2753L7.69209 55.2224C7.39473 55.0266 7.1621 54.7606 6.97982 54.482C6.79559 54.2 6.66777 53.8992 6.57002 53.6248C6.44219 53.2601 6.37452 52.948 6.3482 52.7789L6.34148 52.7747L6.26536 29.932C6.45735 29.938 6.64944 29.9391 6.84086 29.9353C7.63754 29.9193 7.45735 28.8599 7.27269 27.7743C7.10878 26.8106 6.94136 25.8263 7.45053 25.5328L10.9953 22.0663C9.91249 22.6904 8.43119 23.025 6.92733 23.0551C5.42347 23.0852 3.87826 22.8107 2.66766 22.2318C1.45705 21.6528 0.795357 20.867 0.712645 20.0775C0.712446 20.0739 0.712247 20.0703 0.712048 20.0668C0.708498 20.0031 0.705125 19.9425 0.705125 19.882C0.690086 21.0287 0.688207 22.1716 0.686327 23.3145Z" fill="url(#paint5_linear_7697_137812)"/>
<path d="M42.1625 4.38844C42.3129 4.47491 42.3994 4.66289 42.3994 4.90727L42.4859 35.5521C42.4859 35.7965 42.3994 36.0822 42.2528 36.3454C42.1024 36.6048 41.8956 36.8229 41.6813 36.9469L10.3973 55.0082C9.94993 55.2677 9.54765 55.418 9.18296 55.4857C8.81451 55.5534 8.48743 55.5383 8.20545 55.4556C7.64151 55.294 7.25426 54.903 6.97981 54.4781C6.79935 54.1962 6.66776 53.8954 6.57001 53.6209C6.44218 53.2562 6.37827 52.9442 6.34819 52.775C6.34067 52.7299 6.33315 52.6961 6.32939 52.6585L6.24292 25.7808C6.24292 25.5364 6.32563 25.2507 6.47602 24.9875C6.6264 24.7281 6.83318 24.51 7.04748 24.386L41.5835 4.44483C41.8054 4.32452 42.0121 4.30572 42.1625 4.38844ZM40.873 35.5596L40.7903 6.76829L7.86709 25.7733L7.94228 51.5381C7.9686 51.6772 7.99491 51.7937 8.03251 51.9216C8.1077 52.1847 8.23177 52.5231 8.41975 52.8088C8.54382 52.9968 8.69421 53.166 8.87091 53.2788C9.10777 53.4292 9.37846 53.4931 9.71683 53.4292C9.91233 53.3916 10.1341 53.3051 10.3973 53.1547L40.873 35.5596Z" fill="url(#paint6_linear_7697_137812)"/>
<path d="M43.3844 24.9462L40.9783 23.5476L40.9595 16.6186L43.3619 18.0172L43.3844 24.9462Z" fill="black"/>
<path d="M36.7867 28.7547L34.3843 27.3562L40.9787 23.5476L43.3849 24.9462L36.7867 28.7547Z" fill="black"/>
<path d="M34.6496 28.9728L32.2434 27.5742C32.7923 27.8862 33.5442 27.8411 34.3789 27.3561L36.7851 28.7547C35.9504 29.236 35.2022 29.2811 34.6496 28.9728Z" fill="black"/>
<path d="M36.768 21.8257L34.3618 20.4271L40.96 16.6186L43.3624 18.0172L36.768 21.8257Z" fill="white"/>
<path d="M31.3562 25.6342C31.3562 24.6755 31.6871 23.6191 32.2322 22.6754C33.033 23.1416 33.8338 23.6078 34.6384 24.074C34.0932 25.0214 33.7624 26.0741 33.7624 27.0328C33.7661 27.9915 34.1045 28.657 34.6534 28.9728L32.2472 27.5742C31.6983 27.2584 31.36 26.5929 31.3562 25.6342Z" fill="white"/>
<path d="M32.2339 22.6717C32.7828 21.728 33.5272 20.9084 34.3618 20.4272L36.768 21.8257C35.9334 22.3107 35.1852 23.1266 34.6401 24.0702C33.8355 23.604 33.0347 23.1379 32.2339 22.6717Z" fill="white"/>
<path d="M43.3616 18.0172L43.3804 24.9463L36.786 28.7548C35.9514 29.236 35.2032 29.2811 34.6506 28.9728C34.1016 28.657 33.7633 27.9916 33.7595 27.0329C33.7595 26.0704 34.0904 25.0177 34.6355 24.074C35.1844 23.1304 35.9288 22.3108 36.7635 21.8295L43.3616 18.0172Z" fill="url(#paint7_linear_7697_137812)"/>
<path d="M42.7265 14.4643C42.5949 14.3892 42.4144 14.3892 42.2114 14.4869L42.1475 14.5207L34.7523 18.7954C33.4777 19.5323 32.316 20.7993 31.4851 22.243C30.6505 23.6867 30.1354 25.3222 30.1392 26.7884C30.1429 28.2547 30.6655 29.2924 31.5077 29.7661L33.5191 30.9428C32.6807 30.4654 32.1543 29.4277 32.1506 27.9652C32.1468 26.499 32.6619 24.8635 33.4965 23.4198C34.3274 21.9761 35.4892 20.7091 36.7637 19.9722L44.1626 15.7013L44.2266 15.6674C44.4296 15.5697 44.6063 15.5659 44.7416 15.6449C43.9371 15.1749 43.531 14.9305 42.7265 14.4643Z" fill="url(#paint8_linear_7697_137812)"/>
<path d="M44.2256 15.6674C44.6467 15.4606 44.9738 15.6787 44.9738 16.1599L45.0001 24.9424C45.0001 25.4274 44.6768 26.0177 44.2595 26.2959L44.1956 26.3372L36.7966 30.6082C35.5221 31.3451 34.3566 31.4165 33.5182 30.939C32.6798 30.4616 32.1534 29.4239 32.1497 27.9614C32.1459 26.4951 32.661 24.8597 33.4956 23.416C34.3265 21.9723 35.4882 20.7053 36.7628 19.9684L44.1617 15.6975L44.2256 15.6674ZM43.3835 24.9462L43.3647 18.0172L36.7665 21.8257C35.9319 22.3107 35.1837 23.1265 34.6386 24.0702C34.0934 25.0176 33.7626 26.0703 33.7626 27.029C33.7663 27.9877 34.1047 28.6532 34.6536 28.969C35.2025 29.281 35.9544 29.2359 36.7891 28.7509L43.3835 24.9462Z" fill="url(#paint9_linear_7697_137812)"/>
<defs>
<linearGradient id="paint0_linear_7697_137812" x1="4.10816" y1="22.2536" x2="7.25904" y2="30.8131" gradientUnits="userSpaceOnUse">
<stop stop-color="#45FFDE"/>
<stop offset="0.42" stop-color="#D663CA"/>
<stop offset="0.79" stop-color="#48F3E8"/>
<stop offset="0.99" stop-color="#00D18C"/>
<stop offset="1" stop-color="#00D18C"/>
</linearGradient>
<linearGradient id="paint1_linear_7697_137812" x1="7.24878" y1="5.38188" x2="32.4426" y2="28.6715" gradientUnits="userSpaceOnUse">
<stop stop-color="#39056D"/>
<stop offset="0.333333" stop-color="#10001C"/>
<stop offset="1" stop-color="#101025"/>
</linearGradient>
<linearGradient id="paint2_linear_7697_137812" x1="3.06543" y1="20.5137" x2="4.53964" y2="20.6235" gradientUnits="userSpaceOnUse">
<stop stop-color="#39056D"/>
<stop offset="0.333333" stop-color="#10001C"/>
<stop offset="1" stop-color="#101025"/>
</linearGradient>
<linearGradient id="paint3_linear_7697_137812" x1="1.94426" y1="24.2771" x2="24.3085" y2="-10.6042" gradientUnits="userSpaceOnUse">
<stop stop-color="#45FFDE"/>
<stop offset="0.42" stop-color="#D663CA"/>
<stop offset="0.79" stop-color="#48F3E8"/>
<stop offset="0.99" stop-color="#00D18C"/>
<stop offset="1" stop-color="#00D18C"/>
</linearGradient>
<linearGradient id="paint4_linear_7697_137812" x1="8.86996" y1="54.4725" x2="53.0038" y2="26.3917" gradientUnits="userSpaceOnUse">
<stop stop-color="#45FFDE"/>
<stop offset="0.42" stop-color="#D663CA"/>
<stop offset="0.79" stop-color="#48F3E8"/>
<stop offset="0.99" stop-color="#00D18C"/>
<stop offset="1" stop-color="#00D18C"/>
</linearGradient>
<linearGradient id="paint5_linear_7697_137812" x1="1.12739" y1="30.4188" x2="9.70769" y2="31.3771" gradientUnits="userSpaceOnUse">
<stop stop-color="#39056D"/>
<stop offset="0.333333" stop-color="#10001C"/>
<stop offset="1" stop-color="#101025"/>
</linearGradient>
<linearGradient id="paint6_linear_7697_137812" x1="7.34404" y1="56.6446" x2="55.7657" y2="25.7908" gradientUnits="userSpaceOnUse">
<stop stop-color="#00251E"/>
<stop offset="0.317708" stop-color="#FF1AE8"/>
<stop offset="0.630244" stop-color="#00D18C"/>
<stop offset="0.807292" stop-color="#48F3E8"/>
<stop offset="0.99" stop-color="#00D18C"/>
</linearGradient>
<linearGradient id="paint7_linear_7697_137812" x1="32.1075" y1="33.9808" x2="60.3439" y2="15.3446" gradientUnits="userSpaceOnUse">
<stop stop-color="#45FFDE"/>
<stop offset="0.223958" stop-color="#48F3E8"/>
<stop offset="0.482626" stop-color="#E425D1"/>
<stop offset="0.99" stop-color="#00D18C"/>
<stop offset="1" stop-color="#00D18C"/>
</linearGradient>
<linearGradient id="paint8_linear_7697_137812" x1="31.5813" y1="18.1002" x2="48.5155" y2="27.3768" gradientUnits="userSpaceOnUse">
<stop stop-color="#39056D"/>
<stop offset="0.333333" stop-color="#10001C"/>
<stop offset="1" stop-color="#101025"/>
</linearGradient>
<linearGradient id="paint9_linear_7697_137812" x1="32.5401" y1="31.5829" x2="48.1545" y2="20.0455" gradientUnits="userSpaceOnUse">
<stop stop-color="#45FFDE"/>
<stop offset="0.42" stop-color="#D663CA"/>
<stop offset="0.79" stop-color="#48F3E8"/>
<stop offset="0.99" stop-color="#00D18C"/>
<stop offset="1" stop-color="#00D18C"/>
</linearGradient>
</defs>
</svg>
